<?xml version="1.0" standalone="no"?>
<!DOCTYPE svg PUBLIC "-//W3C//DTD SVG 20010904//EN"
 "http://www.w3.org/TR/2001/REC-SVG-20010904/DTD/svg10.dtd">
<svg version="1.0" xmlns="http://www.w3.org/2000/svg"
 width="2048.000000pt" height="2048.000000pt" viewBox="0 0 2048.000000 2048.000000"
 preserveAspectRatio="xMidYMid meet">
<metadata>
Created by potrace 1.14, written by Peter Selinger 2001-2017
</metadata>
<g transform="translate(0.000000,2048.000000) scale(0.100000,-0.100000)"
fill="#000000" stroke="none">
<path d="M0 10240 l0 -10240 10240 0 10240 0 0 10240 0 10240 -10240 0 -10240
0 0 -10240z m12444 8101 c117 -115 210 -196 330 -285 29 -22 40 -26 46 -16 11
18 57 -12 70 -45 12 -33 109 -80 285 -140 77 -27 149 -54 160 -62 26 -17 60
-16 115 3 26 9 61 14 83 11 39 -5 190 -90 286 -160 80 -59 231 -215 279 -288
23 -35 54 -82 69 -103 16 -22 47 -72 70 -110 142 -240 152 -245 181 -92 9 47
20 86 24 86 4 0 5 -39 2 -87 -5 -63 -2 -110 9 -164 17 -80 33 -108 158 -274
95 -126 162 -232 218 -344 51 -101 128 -299 137 -351 11 -64 21 -85 41 -88 26
-4 80 29 148 90 53 46 120 99 145 113 8 5 -14 -24 -50 -63 -85 -95 -131 -165
-170 -259 -27 -65 -32 -87 -30 -147 2 -39 3 -128 3 -197 1 -99 4 -126 14 -122
7 3 13 0 13 -6 0 -6 4 -11 10 -11 5 0 7 6 5 13 -5 10 40 41 184 127 14 9 58
37 96 62 48 31 72 42 77 34 5 -7 8 -5 8 7 0 9 7 17 15 17 19 0 19 -4 0 -40 -8
-16 -11 -31 -6 -34 5 -3 11 1 15 9 8 22 63 19 76 -4 14 -27 13 -31 -8 -31 -9
0 -26 -11 -36 -25 -10 -14 -25 -25 -32 -25 -9 0 -14 -12 -14 -35 0 -42 9 -44
44 -8 19 19 30 23 38 15 6 -6 17 -8 24 -5 8 3 14 3 14 0 0 -6 -143 -85 -345
-192 -83 -44 -191 -119 -198 -138 -3 -7 -3 -25 0 -39 3 -14 0 -29 -6 -32 -6
-4 -11 -31 -11 -59 -1 -48 -9 -100 -24 -152 -3 -11 -17 -65 -30 -120 -13 -55
-29 -115 -34 -132 -6 -18 -8 -33 -5 -33 3 0 1 -6 -4 -12 -12 -16 -13 -48 -1
-48 4 0 8 4 8 9 0 20 60 30 115 19 30 -6 55 -14 55 -18 0 -4 41 -13 90 -20 50
-7 90 -16 90 -20 0 -4 36 -13 80 -20 44 -7 80 -16 80 -21 0 -5 7 -9 15 -9 8 0
15 -4 15 -10 0 -5 -4 -10 -10 -10 -5 0 -10 -9 -10 -20 0 -20 -20 -71 -31 -80
-4 -3 -10 -20 -14 -37 -6 -29 -4 -33 16 -33 19 0 21 -4 16 -37 -4 -20 -10 -39
-15 -42 -5 -3 -12 -24 -15 -46 -10 -72 -19 -105 -28 -105 -5 0 -14 -20 -20
-45 -6 -25 -15 -45 -19 -45 -4 0 -11 -16 -14 -35 -4 -19 -11 -35 -16 -35 -5 0
-15 -20 -21 -45 -6 -25 -15 -45 -19 -45 -4 0 -13 -21 -19 -46 -7 -26 -18 -52
-25 -60 -8 -7 -17 -30 -21 -51 -4 -21 -12 -41 -18 -45 -5 -3 -10 -23 -9 -45 2
-36 -14 -92 -29 -103 -3 -3 -9 -15 -13 -27 -6 -20 -4 -23 17 -23 14 0 27 -5
29 -11 2 -6 34 -13 71 -16 37 -3 67 -9 67 -12 0 -4 9 -7 20 -7 11 0 20 4 20 8
0 4 7 8 15 8 9 0 21 11 27 25 6 14 15 25 19 25 4 0 10 14 14 31 4 17 12 32 19
35 7 3 19 20 26 39 8 19 18 35 22 35 10 0 34 60 29 75 -1 5 0 7 4 3 10 -10 35
17 35 36 0 9 4 16 9 16 5 0 15 23 22 50 7 28 16 50 19 50 4 0 13 23 20 50 7
28 17 50 21 50 5 0 11 16 15 35 3 19 10 35 14 35 4 0 13 20 19 45 6 25 15 45
20 45 5 0 14 21 21 48 8 26 19 51 27 55 7 4 13 13 13 19 0 6 18 28 39 49 40
40 51 37 51 -11 0 -10 4 -20 9 -22 5 -2 15 -32 22 -68 7 -36 16 -67 20 -70 3
-3 12 -26 20 -52 7 -27 17 -48 21 -48 4 0 8 -6 8 -13 0 -19 38 -49 44 -34 2 7
5 5 5 -5 1 -9 6 -18 12 -20 16 -5 13 -119 -3 -131 -10 -7 -10 -10 0 -14 6 -2
12 -16 12 -30 0 -14 5 -54 11 -88 13 -70 9 -101 -21 -135 -18 -20 -20 -32 -14
-81 6 -56 -11 -149 -27 -149 -4 0 -10 -16 -13 -35 -4 -19 -10 -35 -14 -35 -9
0 -33 -62 -27 -69 3 -2 5 1 5 7 0 8 19 12 50 12 43 0 55 -5 80 -30 26 -26 39
-31 116 -40 86 -9 113 -23 114 -57 0 -7 4 -13 9 -13 5 0 12 -20 15 -45 4 -25
10 -45 14 -45 4 0 13 -30 20 -67 7 -37 17 -70 21 -73 5 -3 15 -33 21 -67 7
-35 16 -63 20 -63 5 0 14 -31 20 -70 6 -38 15 -70 20 -70 4 0 14 -33 21 -72 7
-40 16 -75 20 -78 3 -3 11 -28 17 -56 6 -28 27 -74 46 -102 20 -31 38 -71 42
-98 10 -72 -2 -187 -26 -241 -18 -40 -20 -59 -15 -110 4 -35 10 -63 14 -63 5
0 14 -34 22 -75 7 -41 16 -75 20 -75 3 0 12 -27 19 -60 7 -33 16 -60 20 -60 4
0 10 -18 14 -40 6 -39 20 -53 28 -28 3 7 7 6 11 -5 3 -9 2 -17 -3 -17 -6 0
-10 -10 -10 -22 0 -17 3 -20 9 -9 5 8 16 11 25 8 14 -6 15 -3 6 13 -8 14 -8
20 1 20 6 0 13 -9 16 -21 3 -12 11 -18 19 -15 8 3 14 1 14 -4 0 -18 33 -41 50
-35 13 4 20 -1 25 -15 4 -12 4 -24 1 -27 -3 -4 -6 1 -6 10 0 9 -4 17 -10 17
-5 0 -10 -9 -10 -20 0 -11 -4 -20 -10 -20 -5 0 -10 -7 -10 -15 0 -8 5 -15 10
-15 6 0 10 -7 10 -15 0 -8 4 -15 9 -15 4 0 14 -28 21 -62 7 -35 16 -65 20 -68
3 -3 12 -38 19 -77 7 -40 16 -73 21 -73 4 0 13 -34 21 -75 7 -41 16 -75 20
-75 3 0 9 -13 12 -29 3 -16 13 -36 22 -44 8 -9 15 -20 15 -26 0 -5 6 -14 13
-18 7 -4 19 -24 27 -43 8 -19 17 -37 20 -40 11 -9 40 -90 40 -112 0 -29 -30
-107 -50 -130 -8 -10 -48 -52 -87 -93 -40 -40 -73 -79 -73 -84 0 -6 -7 -11
-15 -11 -8 0 -15 -5 -15 -12 0 -11 -38 -53 -153 -166 -32 -31 -85 -84 -117
-116 -33 -32 -60 -65 -60 -72 0 -24 -68 -34 -144 -22 -39 7 -73 15 -76 19 -3
4 -36 12 -74 17 -38 6 -72 15 -75 20 -3 5 -43 15 -88 22 -46 7 -83 15 -83 19
0 8 -126 31 -165 31 -14 0 -25 4 -25 9 0 5 -17 12 -37 16 -25 4 -32 9 -23 15
11 7 10 11 -3 24 -8 9 -18 29 -22 46 -4 16 -11 30 -16 30 -5 0 -14 11 -19 25
-5 14 -14 25 -20 25 -5 0 -10 7 -10 15 0 9 -7 18 -15 21 -8 4 -15 12 -15 19 0
7 -11 23 -25 36 -13 13 -25 28 -25 33 0 5 -9 18 -20 30 -51 52 -100 110 -100
117 0 13 -164 173 -193 188 -15 8 -27 18 -27 23 0 5 -11 13 -25 18 -14 5 -25
13 -25 18 0 4 -16 14 -35 22 -19 8 -35 18 -35 22 0 5 -11 13 -25 18 -14 5 -25
13 -25 18 0 4 -16 14 -35 22 -19 7 -36 19 -39 27 -3 7 -12 13 -21 13 -8 0 -15
3 -15 8 0 8 -49 32 -67 32 -7 0 -13 4 -13 9 0 5 -25 15 -55 22 -30 7 -55 16
-55 20 0 5 -18 14 -40 20 -22 7 -40 16 -40 20 0 5 -20 14 -45 20 -25 6 -45 15
-45 19 0 4 -18 12 -40 19 -22 6 -40 15 -40 20 0 4 -16 13 -35 21 -19 8 -35 17
-35 20 0 4 -18 13 -39 20 -22 7 -42 19 -45 25 -2 7 -18 16 -34 20 -17 3 -33
13 -36 21 -3 8 -12 14 -21 14 -8 0 -15 5 -15 10 0 6 -7 10 -15 10 -8 0 -20 9
-27 20 -7 11 -17 20 -23 20 -11 0 -57 34 -90 68 -12 12 -26 22 -30 22 -4 0
-28 20 -53 45 -24 25 -48 45 -53 45 -4 0 -35 28 -69 62 -49 49 -64 71 -73 110
-7 26 -15 48 -18 48 -4 0 -12 58 -19 129 l-13 129 -46 13 c-25 7 -48 15 -51
18 -8 9 -74 31 -93 31 -9 0 -17 4 -17 10 0 5 -20 15 -45 21 -25 6 -45 14 -45
18 0 4 -15 12 -33 19 -19 7 -40 24 -48 40 -8 15 -16 29 -19 32 -3 3 -11 23
-19 45 -8 22 -17 42 -20 45 -3 3 -11 13 -16 24 -6 10 -14 18 -17 18 -4 -1 -35
26 -68 59 -58 57 -80 66 -80 33 0 -8 -4 -14 -10 -14 -5 0 -10 7 -10 15 0 8 5
15 10 15 6 0 10 7 10 15 0 8 -7 15 -15 15 -8 0 -15 -4 -15 -10 0 -5 -9 -10
-20 -10 -11 0 -20 5 -20 10 0 6 -5 10 -11 10 -16 0 -39 26 -39 44 0 9 -5 16
-10 16 -6 0 -24 14 -40 30 -16 16 -33 30 -38 30 -11 0 -46 41 -55 63 -3 9 -10
17 -15 17 -4 0 -14 16 -22 35 -8 19 -18 35 -22 35 -5 0 -13 11 -18 25 -5 14
-13 25 -18 25 -5 0 -15 18 -22 40 -7 22 -16 40 -19 40 -3 0 -13 15 -20 33 -8
17 -23 40 -34 49 -10 9 -16 22 -12 27 3 7 0 8 -9 5 -16 -6 -24 20 -8 29 4 2 1
2 -6 0 -14 -3 -42 20 -42 35 0 5 -13 23 -30 40 -16 18 -30 36 -30 41 0 5 -3
11 -7 14 -5 2 -2 2 5 1 17 -5 15 25 -3 32 -8 4 -15 14 -16 23 0 13 -2 12 -8
-3 -6 -15 -9 -17 -16 -6 -5 8 -3 17 6 24 16 12 14 46 -2 46 -5 0 -9 9 -9 20 0
11 -7 20 -15 20 -8 0 -15 5 -15 10 0 6 3 10 8 10 12 0 1 80 -12 81 -6 0 -2 4
9 9 17 7 17 9 3 9 -20 1 -25 27 -6 33 7 3 9 12 5 22 -4 9 -10 15 -14 13 -5 -3
-9 9 -10 26 -5 84 -15 152 -22 157 -5 3 -14 43 -21 90 -6 47 -16 88 -21 91 -5
3 -12 41 -14 85 -3 44 -11 104 -17 134 -15 76 -22 430 -9 430 6 0 11 15 11 33
1 45 16 109 30 117 6 4 8 14 4 24 -5 14 -9 15 -16 4 -5 -8 -6 -2 -2 17 4 17
13 34 21 38 7 4 13 13 13 18 0 6 -5 7 -10 4 -21 -13 -4 20 23 43 15 13 27 28
27 34 0 5 -7 2 -16 -6 -17 -18 -28 -21 -19 -6 8 14 -7 35 -25 35 -24 0 -17 30
7 31 12 1 20 -2 18 -6 -9 -15 7 -41 22 -36 9 4 17 -1 20 -14 8 -29 20 -24 25
10 3 17 0 30 -5 30 -5 0 -7 6 -4 13 2 6 9 11 14 10 12 -2 14 35 2 42 -5 4 -9
1 -9 -6 0 -7 -3 -10 -6 -7 -10 11 16 48 34 47 16 -1 16 -2 0 -6 -19 -5 -24
-18 -10 -27 14 -8 52 42 52 68 0 37 -53 43 -64 7 -2 -9 -2 2 1 24 6 38 6 39
-13 21 -14 -14 -19 -16 -23 -5 -2 7 1 15 8 17 9 3 9 8 -1 19 -10 12 -9 17 5
28 9 7 17 20 17 29 0 10 5 14 10 11 12 -8 13 -3 1 28 -8 20 -5 31 15 58 13 18
24 41 24 51 0 10 4 18 8 18 4 0 14 27 20 60 7 33 17 60 21 60 5 0 14 20 20 45
6 25 16 45 21 45 5 0 12 16 16 35 3 20 12 35 20 35 17 0 18 27 2 33 -8 4 -7 6
4 6 9 1 19 -7 21 -16 3 -10 5 -3 6 15 1 18 6 32 14 32 8 0 7 4 -3 10 -10 6
-11 10 -2 10 6 0 12 5 12 10 0 6 -7 10 -15 10 -8 0 -15 7 -15 15 0 18 26 20
33 3 3 -8 6 -6 6 4 1 9 -7 22 -16 28 -14 9 -15 12 -4 17 11 5 11 7 0 14 -18
11 -19 89 -1 89 6 0 12 5 12 10 0 6 -7 10 -15 10 -8 0 -14 3 -13 8 4 14 -13
82 -20 82 -4 0 -13 21 -20 47 -7 26 -22 53 -32 60 -11 8 -20 21 -20 29 0 8 -4
14 -8 14 -5 0 -14 16 -22 35 -7 19 -19 36 -27 39 -7 3 -13 10 -13 15 0 5 -16
26 -35 45 -19 20 -35 41 -35 46 0 6 -5 10 -10 10 -6 0 -24 14 -42 30 -17 17
-37 30 -44 30 -8 0 -14 4 -14 10 0 5 -11 12 -25 16 -14 3 -25 9 -25 13 0 5
-19 14 -42 22 -24 7 -49 19 -56 26 -7 7 -28 15 -47 19 -19 3 -35 10 -35 15 0
4 -18 14 -40 20 -22 7 -40 15 -40 19 0 3 -22 13 -50 20 -27 7 -50 17 -50 21 0
4 -25 13 -55 20 -30 7 -55 15 -55 19 0 4 -25 13 -55 20 -30 7 -55 16 -55 20 0
4 -18 13 -39 20 -22 7 -42 19 -45 26 -3 8 -12 14 -21 14 -8 0 -15 4 -15 8 0 4
-16 14 -35 21 -19 7 -35 16 -35 20 0 4 -18 14 -40 21 -22 7 -40 17 -40 21 0 5
-16 11 -36 15 -19 4 -38 13 -41 20 -6 16 -123 21 -123 5 0 -4 -34 -14 -75 -21
-41 -7 -75 -16 -75 -20 0 -7 -26 -13 -127 -26 -24 -3 -43 -11 -43 -18 0 -6 -5
-4 -10 4 -5 8 -10 10 -10 4 0 -6 -27 -17 -60 -23 -33 -7 -60 -16 -60 -21 0 -4
-18 -11 -40 -15 -22 -4 -40 -10 -40 -14 0 -4 -33 -14 -72 -21 -40 -8 -78 -19
-85 -26 -6 -6 -34 -14 -62 -18 -28 -4 -51 -10 -51 -14 0 -5 -23 -14 -52 -22
-29 -7 -58 -19 -66 -26 -7 -7 -28 -16 -47 -20 -19 -3 -35 -10 -35 -15 0 -4
-16 -11 -36 -15 -19 -4 -38 -12 -40 -19 -3 -7 -21 -16 -39 -19 -19 -4 -38 -13
-42 -20 -5 -7 -25 -19 -45 -25 -21 -7 -38 -16 -38 -21 0 -5 -13 -11 -30 -15
-16 -4 -30 -10 -30 -15 0 -5 -17 -14 -37 -21 -21 -6 -44 -18 -51 -26 -7 -7
-24 -13 -37 -13 -13 0 -30 -7 -38 -15 -8 -8 -36 -20 -61 -27 -25 -7 -46 -15
-46 -19 0 -4 -13 -12 -30 -19 -16 -7 -30 -16 -30 -20 0 -5 -13 -11 -30 -15
-16 -4 -33 -12 -37 -19 -5 -7 -23 -18 -40 -25 -18 -8 -33 -17 -33 -22 0 -5 -6
-9 -13 -9 -13 0 -67 -53 -67 -65 0 -10 -125 -135 -135 -135 -11 0 -75 -69 -75
-81 0 -5 -7 -9 -16 -9 -8 0 -13 -4 -10 -8 5 -9 -47 -62 -62 -62 -5 0 -18 -11
-28 -25 -10 -14 -27 -25 -36 -25 -23 0 -23 -20 0 -21 16 -1 16 -2 0 -6 -10 -2
-18 -13 -18 -24 0 -10 -5 -19 -11 -19 -6 0 -8 9 -3 22 6 20 5 21 -10 6 -19
-20 -21 -55 -3 -61 6 -2 -1 -4 -16 -4 -35 -1 -40 -5 -41 -44 -1 -20 -7 -34
-16 -36 -12 -4 -12 -3 -2 5 19 13 12 44 -8 32 -9 -6 -14 -25 -14 -54 0 -25 -4
-40 -8 -33 -5 8 -8 4 -8 -10 0 -14 -6 -23 -16 -23 -11 0 -14 6 -9 20 4 12 2
20 -5 20 -6 0 -9 -4 -5 -9 3 -5 -1 -15 -8 -23 -27 -26 -39 -59 -28 -72 6 -7 7
-16 3 -20 -4 -4 -2 -7 3 -6 6 1 21 2 34 1 24 -1 24 -1 5 -17 -10 -8 -13 -13
-6 -9 6 3 12 0 12 -7 0 -10 3 -9 11 2 9 12 10 11 6 -6 -5 -22 8 -23 53 -7 8 3
29 7 45 9 17 2 42 5 58 7 15 2 27 0 27 -4 0 -5 12 -9 26 -9 14 0 23 4 20 8 -3
5 1 9 9 9 8 0 12 -4 10 -7 -3 -4 22 -13 54 -19 43 -9 71 -9 111 0 126 27 311
-38 555 -194 284 -182 523 -386 672 -573 26 -33 102 -114 168 -181 66 -66 129
-133 141 -149 104 -144 184 -284 214 -377 26 -80 60 -58 90 57 33 128 36 123
44 -64 4 -80 9 -165 11 -190 22 -211 37 -547 31 -704 -6 -167 -5 -178 12 -171
46 20 61 18 68 -9 3 -15 -3 -104 -14 -199 -12 -95 -24 -208 -27 -252 -9 -122
-24 -239 -45 -360 -46 -264 -46 -268 38 -247 88 22 132 1 132 -61 0 -16 -6
-43 -14 -60 -46 -108 -76 -178 -76 -181 0 -3 17 -10 37 -17 21 -6 43 -18 51
-25 7 -7 28 -16 47 -20 19 -3 35 -10 35 -14 0 -4 23 -13 50 -20 28 -7 50 -16
50 -21 0 -5 9 -9 19 -9 11 0 26 -6 33 -13 7 -8 30 -20 51 -26 20 -7 37 -16 37
-21 0 -5 13 -11 30 -15 16 -4 33 -12 37 -19 5 -7 27 -18 51 -24 23 -7 42 -17
42 -21 0 -5 23 -14 50 -21 28 -7 50 -15 50 -19 0 -4 16 -13 35 -20 19 -7 35
-16 35 -21 0 -4 14 -13 30 -19 17 -5 30 -14 30 -19 0 -4 16 -14 35 -22 19 -7
36 -19 39 -27 3 -7 12 -13 19 -13 12 0 26 -9 74 -50 7 -6 24 -15 38 -20 14 -5
25 -14 25 -19 0 -6 16 -13 35 -17 19 -3 39 -12 43 -19 4 -7 24 -18 45 -24 20
-7 35 -16 32 -21 -3 -4 4 -10 15 -13 11 -3 20 -4 20 -3 0 2 -18 23 -40 47 -66
74 -70 79 -60 79 15 0 54 -23 63 -37 4 -7 14 -13 22 -13 8 0 18 -6 22 -13 4
-7 23 -19 41 -26 17 -8 32 -17 32 -21 0 -4 15 -13 33 -21 17 -7 35 -18 40 -25
4 -7 21 -15 37 -19 17 -4 30 -10 30 -15 0 -5 16 -14 34 -21 19 -7 33 -16 31
-19 -2 -4 14 -12 35 -19 22 -6 40 -15 40 -19 0 -5 16 -14 35 -21 19 -7 35 -17
35 -22 0 -5 7 -9 15 -9 9 0 18 -6 21 -14 3 -8 19 -18 36 -21 16 -4 32 -13 35
-21 3 -7 21 -16 40 -20 19 -4 37 -12 39 -19 3 -7 23 -18 45 -25 21 -7 39 -16
39 -20 0 -3 16 -12 35 -20 19 -8 35 -18 35 -22 0 -5 11 -13 25 -18 14 -5 25
-13 25 -17 0 -5 14 -15 32 -22 37 -16 194 -173 203 -202 4 -10 10 -19 15 -19
4 0 18 -11 31 -25 13 -13 28 -25 33 -25 5 0 18 -9 30 -20 102 -97 162 -150
171 -150 6 0 18 -11 25 -25 7 -14 16 -25 20 -25 9 0 120 -109 120 -118 0 -6
26 -41 62 -82 7 -9 20 -29 28 -45 8 -16 27 -41 43 -56 15 -14 27 -30 27 -35 0
-5 14 -22 30 -37 17 -16 30 -35 30 -42 0 -7 7 -15 15 -19 8 -3 15 -12 15 -20
0 -7 7 -16 15 -20 8 -3 15 -12 15 -20 0 -9 9 -20 19 -26 11 -5 22 -23 26 -40
4 -16 11 -30 15 -30 5 0 15 -18 21 -40 7 -22 15 -40 19 -40 3 0 12 -16 20 -35
8 -19 17 -35 21 -35 3 0 12 -14 19 -30 7 -16 16 -30 20 -30 5 0 14 -22 21 -50
7 -27 16 -50 20 -50 3 0 12 -28 19 -62 7 -35 17 -65 21 -68 4 -3 9 -18 12 -35
12 -76 20 -105 27 -105 5 0 11 -18 15 -40 4 -22 10 -38 15 -35 4 3 11 -10 14
-28 16 -77 19 -87 26 -87 4 0 13 -28 20 -62 7 -35 17 -65 21 -68 8 -5 21 -94
21 -132 -1 -10 6 -18 14 -18 8 0 14 7 14 15 0 8 -4 15 -10 15 -14 0 -13 57 1
66 12 7 31 -15 23 -28 -3 -4 2 -5 10 -2 10 4 16 1 17 -7 0 -8 3 -39 5 -69 3
-30 5 -66 5 -80 0 -14 3 -19 6 -12 11 27 23 10 23 -32 0 -56 8 -76 26 -69 10
4 14 -4 14 -31 0 -35 -14 -49 -23 -23 -2 6 -4 -3 -5 -21 0 -25 3 -32 14 -28 8
3 14 0 15 -7 0 -7 4 -3 9 8 4 12 6 -22 4 -79 -4 -87 -2 -97 11 -86 13 11 15 6
17 -36 l1 -49 7 50 7 50 1 -48 c1 -29 6 -46 12 -42 6 4 10 -10 10 -34 0 -28 5
-43 18 -50 9 -6 11 -11 5 -11 -15 0 -18 -60 -3 -60 6 0 10 -40 10 -100 0 -55
-4 -100 -9 -100 -5 0 -12 -41 -16 -90 -4 -50 -11 -90 -16 -90 -5 0 -9 -17 -9
-37 0 -46 -20 -166 -29 -173 -4 -3 -13 -31 -21 -62 -7 -32 -17 -58 -22 -58 -4
0 -8 -11 -8 -25 0 -23 -18 -74 -30 -85 -3 -3 -11 -27 -18 -55 -7 -27 -17 -52
-21 -55 -4 -3 -13 -31 -21 -62 -7 -32 -17 -58 -22 -58 -4 0 -8 -9 -8 -20 0
-11 -4 -20 -10 -20 -5 0 -10 -9 -10 -20 0 -11 -4 -20 -10 -20 -5 0 -10 -6 -10
-14 0 -8 -9 -21 -19 -28 -11 -8 -23 -26 -27 -42 -3 -15 -13 -30 -20 -33 -8 -3
-14 -14 -14 -24 0 -10 -6 -19 -14 -19 -8 0 -17 -15 -20 -35 -4 -20 -16 -39
-27 -46 -16 -8 -19 -17 -15 -37 5 -20 4 -23 -4 -12 -8 13 -10 13 -10 -1 0 -9
-7 -20 -16 -23 -10 -4 -14 -14 -11 -26 3 -11 2 -19 -2 -18 -27 3 -49 -27 -43
-59 2 -8 -3 -10 -13 -7 -10 4 -15 0 -15 -15 0 -14 -9 -25 -26 -31 -17 -7 -24
-15 -20 -25 3 -8 2 -15 -3 -15 -12 0 -67 -54 -74 -73 -4 -10 1 -21 11 -27 16
-11 16 -11 0 -6 -10 3 -25 3 -33 0 -16 -7 -21 -40 -6 -46 5 -1 2 -10 -7 -18
-14 -13 -15 -12 -9 4 5 13 3 17 -11 14 -9 -2 -16 -12 -15 -22 0 -9 -1 -15 -4
-12 -6 5 -83 -73 -83 -85 0 -4 -18 -25 -40 -47 -22 -21 -40 -44 -40 -50 0 -6
-9 -16 -19 -22 -11 -5 -23 -19 -26 -31 -4 -11 -31 -43 -61 -72 -31 -29 -82
-79 -116 -112 -33 -33 -65 -60 -72 -60 -6 0 -11 -5 -11 -12 0 -18 -93 -103
-113 -103 -15 -1 -14 -3 3 -16 14 -11 15 -15 5 -14 -44 6 -80 -3 -106 -25 -16
-14 -32 -25 -36 -25 -5 0 -35 -25 -103 -88 -11 -10 -28 -21 -37 -25 -10 -3
-18 -10 -18 -15 0 -5 -13 -15 -30 -22 -16 -7 -30 -16 -30 -21 0 -5 -11 -14
-25 -19 -14 -5 -25 -14 -25 -20 0 -5 -6 -10 -12 -10 -11 0 -25 -9 -84 -58 -5
-5 -21 -15 -35 -22 -13 -7 -26 -16 -29 -21 -3 -4 -34 -13 -70 -20 -36 -7 -67
-17 -70 -21 -3 -4 -41 -8 -84 -9 -56 -1 -81 2 -88 12 -8 12 -10 12 -15 0 -5
-11 -7 -11 -14 0 -6 10 -9 11 -9 2 0 -17 -76 -17 -84 0 -5 9 -7 9 -12 -2 -5
-11 -8 -11 -15 0 -6 10 -9 11 -9 2 0 -17 -37 -17 -44 0 -5 9 -7 9 -12 0 -7
-15 -34 -17 -34 -3 0 15 -40 12 -41 -2 0 -9 -2 -9 -6 1 -5 11 -7 11 -14 0 -8
-12 -10 -12 -18 -1 -5 9 -40 15 -107 18 -250 12 -288 15 -294 24 -3 5 -42 12
-86 15 -43 2 -114 7 -156 10 -81 6 -84 5 -94 -52 -1 -7 -12 -42 -24 -79 -15
-45 -29 -68 -41 -71 -11 -3 -19 -13 -20 -22 0 -12 -2 -12 -6 -2 -5 11 -7 11
-15 0 -7 -11 -11 -11 -15 -1 -6 14 -43 16 -43 2 0 -5 -11 -10 -25 -10 -14 0
-25 5 -25 10 0 6 -4 10 -10 10 -5 0 -10 -7 -10 -15 0 -8 -9 -15 -21 -15 -11 0
-17 5 -14 10 3 6 2 10 -3 10 -6 0 -12 -7 -16 -15 -6 -17 -56 -21 -56 -5 0 17
-17 11 -22 -8 -3 -10 -16 -18 -30 -19 -22 -2 -25 1 -21 18 5 19 4 20 -15 10
-11 -6 -28 -11 -38 -11 -9 0 -22 -8 -29 -17 -9 -12 -31 -17 -89 -19 -42 -2
-80 -6 -85 -8 -5 -3 -5 14 0 37 4 23 8 47 9 54 0 8 -45 10 -175 6 -167 -6
-175 -5 -176 13 0 12 -2 14 -6 5 -5 -11 -7 -11 -14 0 -8 12 -10 12 -18 1 -6
-11 -10 -10 -15 3 -3 10 -1 24 5 31 9 12 4 14 -32 15 -24 1 -52 0 -62 -1 -11
-1 -21 7 -24 19 -3 12 -13 21 -22 22 -39 3 -77 -4 -83 -15 -6 -8 -8 -8 -8 2 0
14 -37 17 -42 3 -3 -10 -106 -18 -338 -26 -74 -3 -126 -9 -128 -15 -3 -7 -10
-6 -20 2 -12 10 -14 10 -8 1 4 -9 1 -14 -11 -15 -91 -7 -148 -19 -152 -30 -2
-6 -7 -5 -12 3 -8 12 -10 12 -18 1 -5 -9 -48 -18 -122 -25 -63 -6 -117 -15
-121 -21 -5 -8 -8 -7 -8 2 0 6 -7 12 -15 12 -8 0 -15 -6 -16 -12 0 -10 -2 -10
-6 0 -6 14 -33 16 -33 2 0 -15 -30 -12 -31 3 0 8 -2 8 -6 -2 -5 -11 -7 -11
-14 0 -8 12 -11 11 -19 -1 -5 -8 -10 -10 -10 -4 0 12 -55 21 -187 31 -51 3
-83 10 -83 17 0 6 -5 4 -10 -4 -9 -13 -11 -13 -20 0 -9 13 -10 13 -10 0 0 -18
30 -46 66 -62 13 -6 24 -15 24 -19 0 -4 16 -13 35 -20 19 -7 35 -16 35 -20 0
-4 16 -10 35 -13 19 -4 35 -11 35 -16 0 -5 25 -14 55 -20 30 -6 55 -15 55 -19
0 -5 17 -11 38 -15 21 -3 49 -15 62 -26 13 -11 31 -20 42 -20 10 0 18 -6 18
-13 0 -7 16 -19 35 -26 19 -7 35 -16 35 -20 0 -5 14 -14 30 -21 17 -7 30 -16
30 -20 0 -11 58 -19 164 -23 48 -2 91 -8 95 -13 3 -5 20 -16 36 -24 17 -8 36
-21 43 -27 7 -7 20 -13 28 -13 8 0 14 -4 14 -10 0 -5 16 -12 36 -16 19 -4 38
-12 40 -19 3 -7 23 -18 45 -25 21 -7 39 -17 39 -22 0 -4 9 -8 20 -8 11 0 20
-4 20 -10 0 -5 16 -10 35 -10 24 0 35 -5 35 -15 0 -9 6 -12 16 -8 9 3 19 2 23
-3 3 -5 35 -6 71 -3 36 3 55 6 44 7 -25 2 -39 28 -22 38 7 4 13 3 15 -3 3 -7
16 -8 41 -2 48 11 52 11 52 -1 0 -5 -7 -10 -15 -10 -8 0 -15 -4 -15 -10 0 -15
19 -12 37 5 8 8 19 13 24 10 5 -4 9 -1 9 4 0 6 15 11 33 11 24 0 28 -3 17 -10
-9 -6 -10 -10 -3 -10 6 0 14 4 17 8 3 5 31 9 63 10 32 1 59 6 61 12 5 14 32
12 33 -2 0 -10 2 -10 6 0 3 8 26 12 67 12 l62 0 13 37 c7 21 19 52 26 68 7 17
28 81 47 144 33 114 51 142 60 99 3 -13 9 -31 13 -40 5 -13 2 -15 -14 -11 -17
4 -21 1 -21 -21 0 -27 14 -35 24 -13 3 6 4 -4 1 -23 -5 -39 7 -71 20 -50 10
16 25 -6 24 -35 0 -11 -3 -14 -6 -8 -3 10 -9 9 -20 -3 -15 -14 -14 -18 10 -39
15 -12 27 -33 28 -46 0 -13 3 -19 5 -13 3 8 32 10 88 7 l82 -4 27 38 27 38 0
-33 c0 -19 5 -32 13 -33 69 -3 233 4 237 10 3 5 31 11 63 15 31 4 57 11 57 16
0 11 108 20 284 24 79 2 141 8 145 13 3 6 40 16 81 23 41 7 77 16 80 20 3 5
34 14 70 21 36 7 67 16 70 19 7 7 74 30 88 30 21 0 -9 -38 -40 -51 -16 -6 -28
-15 -28 -20 0 -5 -11 -14 -25 -19 -14 -5 -25 -13 -25 -17 0 -5 -15 -15 -32
-23 -18 -7 -37 -18 -43 -22 -5 -5 -20 -17 -33 -28 -13 -10 -37 -22 -53 -25
-16 -4 -29 -10 -29 -14 0 -4 -18 -14 -40 -21 -22 -7 -40 -16 -40 -20 0 -4 -18
-13 -40 -20 -22 -7 -40 -16 -40 -20 0 -4 -20 -13 -45 -19 -25 -6 -45 -15 -45
-20 0 -5 -22 -15 -50 -22 -27 -7 -50 -16 -50 -20 0 -4 -20 -12 -45 -18 -25 -6
-45 -15 -45 -20 0 -4 -27 -14 -60 -21 -33 -7 -60 -16 -60 -20 0 -4 -29 -14
-65 -21 -36 -7 -65 -16 -65 -20 0 -4 -18 -10 -39 -14 -42 -7 -53 -24 -66 -97
l-6 -38 -27 17 c-17 10 -22 11 -14 3 6 -8 12 -23 12 -35 0 -16 2 -17 10 -5 5
8 10 11 10 5 0 -5 -4 -16 -9 -24 -7 -11 -10 -9 -16 8 -3 11 -13 21 -21 21 -8
0 -12 5 -9 10 3 6 -2 10 -11 10 -16 0 -16 -1 -1 -18 22 -24 11 -35 -17 -18
-13 8 -32 10 -51 6 -16 -4 -22 -8 -12 -9 9 0 17 -5 17 -10 0 -13 -25 -20 -48
-15 -14 4 -21 0 -25 -16 -5 -18 -2 -21 14 -17 10 3 19 2 19 -3 0 -4 -10 -10
-22 -13 -30 -8 -48 -51 -89 -214 -31 -122 -36 -132 -54 -127 -27 9 -27 8 -15
38 5 15 10 37 10 50 0 12 7 31 16 42 15 19 15 19 10 -1 -31 -131 -12 -104 26
37 36 133 48 218 15 106 -20 -70 -47 -122 -47 -91 0 7 4 14 9 17 5 3 9 23 9
43 1 21 8 58 16 82 19 51 20 75 5 65 -8 -5 -9 6 -4 36 5 30 4 41 -4 36 -6 -4
-9 -11 -6 -16 7 -12 -16 -25 -24 -13 -9 13 -41 24 -41 14 0 -5 -16 -12 -36
-15 -25 -5 -34 -11 -30 -22 3 -8 -1 -14 -9 -14 -8 0 -15 6 -16 13 -1 11 -7 -1
-24 -51 -4 -12 -12 -22 -19 -22 -18 0 -37 -38 -30 -64 7 -31 -13 -44 -31 -20
-7 11 -16 16 -19 13 -3 -3 3 -15 14 -26 19 -21 19 -21 -1 -26 -13 -4 -19 0
-20 11 0 10 -10 -17 -23 -58 -12 -41 -41 -111 -63 -155 -23 -44 -48 -96 -57
-115 -9 -19 -16 -30 -16 -25 0 16 46 195 64 245 8 25 24 93 34 153 17 91 17
107 5 107 -8 0 -21 -6 -29 -14 -7 -8 -32 -17 -54 -21 -22 -4 -40 -10 -40 -15
0 -4 -27 -13 -60 -20 -33 -7 -60 -16 -60 -20 0 -4 -31 -12 -70 -19 -38 -7 -70
-16 -70 -21 0 -4 -27 -10 -59 -14 -33 -4 -61 -11 -63 -16 -2 -5 -97 -14 -213
-20 -115 -7 -211 -16 -213 -21 -4 -11 -222 -12 -222 -1 0 4 -53 14 -117 21
-65 8 -121 19 -125 25 -5 8 -79 11 -238 11 -160 0 -233 3 -238 11 -10 16 -156
34 -274 34 -59 0 -98 4 -98 10 0 6 -14 10 -31 10 -35 0 -122 20 -129 30 -3 4
-29 13 -57 20 -29 6 -53 15 -53 20 0 4 -28 13 -62 20 -35 7 -65 16 -68 20 -3
3 -48 12 -100 19 -52 6 -97 16 -100 20 -3 4 -30 14 -60 21 -30 7 -57 16 -60
19 -6 8 -117 31 -148 31 -12 0 -22 4 -22 8 0 5 -29 14 -65 21 -36 7 -65 17
-65 21 0 5 -18 11 -40 15 -22 4 -40 10 -40 15 0 4 -22 13 -50 20 -27 7 -50 15
-50 19 0 4 -22 14 -50 21 -27 7 -50 17 -50 21 0 4 -22 12 -50 19 -27 7 -50 15
-50 19 0 4 -25 14 -55 21 -30 7 -55 17 -55 21 0 5 -20 14 -45 20 -25 6 -45 14
-45 18 0 4 -23 13 -52 21 -29 7 -58 19 -66 26 -7 8 -24 14 -37 14 -13 0 -30 6
-38 14 -8 8 -33 20 -57 26 -24 6 -49 18 -57 26 -8 8 -20 14 -28 14 -7 0 -15 7
-19 15 -3 8 -11 15 -18 15 -7 0 -27 15 -44 34 -17 18 -49 39 -70 46 -21 7 -45
21 -52 32 -7 10 -17 18 -22 18 -13 0 -55 42 -63 62 -3 10 -11 18 -16 18 -5 0
-15 16 -22 35 -7 19 -16 35 -20 35 -4 0 -12 14 -19 30 -7 17 -16 30 -21 30 -4
0 -10 8 -14 19 -3 10 -17 31 -30 47 -14 16 -25 34 -25 39 0 6 -9 16 -20 23
-11 7 -20 16 -20 22 0 5 -13 24 -30 42 -45 50 -54 61 -69 91 -8 15 -18 27 -21
27 -4 0 -13 14 -20 30 -7 17 -16 30 -19 30 -4 0 -13 16 -21 35 -8 19 -17 35
-21 35 -4 0 -13 29 -20 65 -7 36 -16 65 -19 65 -4 0 -13 38 -20 85 -7 47 -16
85 -20 85 -4 0 -13 35 -20 78 -7 42 -16 79 -20 82 -8 6 -30 147 -30 195 0 18
-5 35 -11 37 -6 2 -12 56 -14 143 -2 77 -2 130 1 118 3 -13 10 -23 15 -23 5 0
9 -17 9 -37 0 -50 20 -163 29 -163 5 0 13 -18 20 -40 6 -22 16 -40 20 -40 5 0
12 -16 15 -35 4 -19 13 -35 20 -35 7 0 18 -16 26 -35 8 -19 20 -35 27 -35 8 0
17 -8 20 -17 9 -24 41 -53 57 -53 8 0 17 15 20 35 4 19 10 35 15 35 4 0 14 23
21 50 7 28 17 50 22 50 4 0 8 9 8 20 0 10 8 23 17 28 19 11 25 108 7 120 -6 4
-14 24 -18 44 -4 20 -11 38 -17 40 -5 2 -15 34 -22 71 -6 37 -15 67 -19 67 -4
0 -8 90 -8 200 0 153 3 200 13 200 8 0 7 4 -3 10 -10 7 -12 12 -4 17 6 5 17
61 24 126 7 64 17 117 21 117 4 0 11 27 15 60 4 33 10 60 14 60 4 0 13 45 20
100 7 55 16 100 20 100 4 0 13 53 20 118 7 64 18 120 24 125 8 5 6 10 -4 17
-8 5 -10 10 -4 10 5 0 16 41 23 90 8 50 17 90 21 90 8 0 34 129 28 136 -7 7
-58 -47 -58 -61 0 -7 -7 -15 -15 -19 -8 -3 -15 -12 -15 -20 0 -9 -9 -20 -20
-26 -11 -6 -20 -17 -20 -26 0 -8 -7 -17 -15 -20 -8 -4 -15 -13 -15 -20 0 -8
-6 -17 -14 -20 -8 -3 -18 -19 -21 -35 -4 -16 -12 -32 -18 -36 -7 -5 -19 -21
-27 -38 -8 -16 -17 -32 -20 -35 -3 -3 -12 -18 -20 -35 -8 -16 -23 -36 -32 -43
-10 -7 -18 -20 -18 -28 0 -8 -4 -14 -8 -14 -4 0 -14 -16 -21 -35 -7 -19 -16
-35 -21 -35 -5 0 -15 -19 -22 -43 -6 -23 -16 -45 -20 -48 -4 -3 -14 -29 -20
-57 -7 -29 -16 -52 -20 -52 -3 0 -12 -25 -19 -55 -7 -30 -16 -55 -20 -55 -4 0
-10 -18 -14 -40 -4 -22 -10 -40 -14 -40 -13 0 -31 -107 -31 -188 0 -48 -4 -82
-10 -82 -5 0 -10 -9 -10 -20 0 -11 5 -20 10 -20 6 0 10 -11 10 -25 0 -14 -4
-25 -10 -25 -5 0 -11 -10 -11 -22 -2 -34 -17 60 -18 110 -1 23 -5 42 -9 42 -5
0 -14 96 -21 213 -7 116 -18 215 -23 218 -14 9 -16 1028 -2 1037 6 4 17 42 24
85 7 42 16 77 19 77 4 0 12 30 19 67 7 37 17 70 21 73 5 3 15 38 22 78 7 39
16 72 20 72 3 0 9 18 13 40 3 22 10 40 14 40 4 0 14 27 21 60 8 33 17 60 22
60 4 0 10 8 14 19 3 10 15 29 26 42 58 69 96 113 117 133 12 13 22 29 22 35 0
6 6 14 14 17 8 3 20 20 27 37 7 18 18 35 25 39 6 4 15 20 18 34 4 15 14 33 21
41 8 8 15 25 15 39 0 13 4 24 9 24 5 0 15 16 21 35 7 20 36 60 66 89 30 29 54
56 54 60 0 4 33 40 73 79 39 40 78 85 86 100 8 15 17 27 21 27 10 0 80 69 80
79 0 5 32 40 70 78 39 39 70 73 70 78 0 4 13 20 29 36 17 15 35 38 41 50 7 12
28 36 47 53 19 17 54 50 78 74 24 23 46 42 49 42 3 0 39 31 78 70 121 116 148
140 157 140 5 0 19 11 32 25 13 13 28 25 32 25 5 0 42 34 82 75 41 41 78 75
83 75 5 0 22 15 38 34 16 18 46 39 67 45 20 7 37 16 37 21 0 4 23 13 50 20 28
7 50 16 50 20 0 4 14 13 30 19 17 5 30 14 30 20 0 5 13 12 30 16 16 4 33 12
37 18 5 7 22 19 38 27 17 8 32 17 35 20 3 3 19 12 35 20 31 15 43 24 74 50 10
8 26 20 37 26 27 16 20 28 -23 37 -42 9 -208 86 -260 121 -18 13 -66 54 -106
92 -40 38 -108 96 -152 129 -116 89 -159 130 -243 229 -97 115 -162 211 -243
356 -45 81 -86 138 -139 195 -74 78 -129 152 -182 245 -46 80 -124 243 -146
305 -25 67 -72 263 -72 297 -1 13 -8 39 -18 58 -14 28 -22 34 -42 32 -13 -2
-30 -11 -37 -20 -11 -15 -12 -12 -13 21 0 37 -16 50 -26 22 -4 -8 -13 -15 -20
-15 -8 0 -17 -6 -20 -13 -3 -8 -20 -20 -39 -27 -19 -8 -35 -18 -35 -22 0 -5
-13 -14 -29 -19 -16 -6 -32 -17 -35 -25 -3 -8 -11 -14 -18 -14 -7 0 -26 -16
-43 -35 -70 -82 -120 -135 -127 -135 -4 0 -30 -21 -57 -47 -57 -55 -107 -96
-123 -102 -6 -2 -25 -19 -42 -37 -17 -19 -35 -34 -40 -34 -5 0 -18 -9 -30 -20
-50 -49 -110 -100 -116 -100 -10 0 -97 -85 -101 -99 -5 -13 -67 -85 -126 -146
-24 -24 -43 -47 -43 -51 0 -4 -27 -34 -60 -66 -33 -33 -64 -67 -69 -76 -5 -9
-13 -13 -17 -9 -5 5 -4 11 2 15 5 4 16 26 22 50 7 23 16 42 21 42 4 0 13 18
20 40 6 22 16 40 20 40 5 0 11 13 14 30 6 26 122 160 140 160 8 0 57 49 57 58
0 4 11 20 25 36 14 16 25 33 25 38 0 14 -38 9 -43 -6 -3 -8 -19 -17 -36 -21
-17 -4 -31 -10 -31 -15 0 -4 -13 -13 -30 -19 -16 -5 -30 -14 -30 -19 0 -4 -16
-14 -35 -22 -19 -8 -35 -17 -35 -21 0 -4 -15 -10 -34 -13 -19 -4 -37 -13 -40
-21 -3 -9 -18 -15 -35 -15 -16 0 -36 -7 -44 -15 -8 -8 -36 -19 -61 -26 -31 -8
-45 -16 -42 -24 7 -18 -5 -27 -20 -14 -9 8 -11 5 -7 -10 3 -12 0 -22 -6 -22
-6 -1 -14 -2 -18 -3 -5 -1 -23 -6 -40 -10 -34 -8 -46 -26 -17 -26 8 0 12 -5 9
-10 -4 -6 -16 -8 -28 -5 -12 2 -16 2 -9 -1 21 -10 13 -24 -14 -24 -14 0 -23
-4 -19 -10 3 -5 -3 -10 -14 -10 -12 0 -21 -6 -21 -14 0 -8 -8 -13 -17 -12 -12
1 -17 -5 -16 -19 1 -11 0 -14 -3 -7 -6 14 -34 17 -34 3 0 -5 6 -11 12 -14 7
-2 -2 -4 -20 -3 -18 1 -37 8 -42 16 -8 12 -10 12 -10 -4 0 -12 -5 -16 -15 -12
-8 3 -15 2 -15 -3 0 -4 -10 -7 -22 -7 -16 1 -23 -4 -22 -16 1 -10 -2 -16 -6
-13 -11 7 -40 -5 -40 -17 0 -5 -22 -31 -50 -57 -27 -26 -50 -53 -50 -59 0 -6
-9 -16 -20 -22 -11 -6 -20 -17 -20 -26 0 -8 -6 -17 -13 -20 -8 -3 -20 -20 -27
-39 -8 -19 -17 -35 -21 -35 -4 0 -9 -8 -11 -18 -7 -23 -40 -22 -67 2 -19 17
-19 17 -14 -2 4 -17 1 -19 -23 -14 -16 3 -35 12 -44 20 -13 13 -15 13 -20 -4
-3 -10 -15 -20 -28 -21 -12 -2 -39 -21 -59 -43 -21 -22 -43 -40 -49 -40 -7 0
-14 -6 -17 -14 -3 -8 -20 -17 -37 -21 -23 -5 -32 -14 -36 -34 -4 -20 -15 -31
-39 -40 -21 -7 -37 -22 -45 -41 -7 -17 -18 -30 -26 -30 -7 0 -15 -9 -19 -19
-3 -10 -17 -22 -30 -25 -14 -4 -25 -13 -25 -22 0 -18 -23 -44 -39 -44 -6 0
-13 -11 -17 -25 -3 -14 -10 -23 -14 -20 -9 5 -60 -51 -60 -66 0 -5 -6 -9 -13
-9 -13 0 -67 -53 -67 -66 0 -4 -6 -15 -14 -23 -7 -9 -21 -50 -30 -91 -10 -41
-21 -84 -26 -95 -5 -11 -16 -60 -25 -110 -9 -49 -23 -115 -31 -145 -8 -30 -31
-116 -50 -190 -75 -289 -93 -341 -128 -371 -13 -12 -29 -33 -35 -48 -32 -81
-74 -408 -86 -676 -7 -149 -37 -445 -65 -650 -11 -77 -20 -167 -20 -201 0 -70
-6 -94 -25 -94 -8 0 -19 29 -30 78 -9 42 -38 147 -65 232 -55 175 -105 348
-115 400 -4 19 -23 70 -42 114 -38 86 -86 294 -125 552 -20 130 -23 188 -23
454 0 168 3 325 7 350 3 25 12 81 18 125 7 44 23 132 36 195 13 63 31 171 39
239 20 153 29 205 56 295 33 114 99 317 119 366 10 25 34 88 54 140 19 52 55
140 81 195 26 55 57 123 70 150 13 28 26 79 30 115 9 87 35 190 91 357 47 141
163 393 214 468 15 22 40 62 55 89 52 94 231 322 340 435 97 100 209 191 236
191 5 0 9 5 9 12 0 6 3 8 7 5 3 -4 13 -1 22 6 9 8 59 31 111 51 52 21 104 46
115 55 11 10 83 49 160 88 216 108 302 161 335 209 23 35 237 244 336 330 105
90 390 308 469 357 147 92 248 131 518 198 109 27 134 42 147 87 5 20 20 54
33 74 42 70 102 160 136 206 42 57 206 320 228 367 20 42 12 54 -44 62 -33 4
-74 -10 -278 -95 -132 -54 -355 -142 -495 -195 -400 -149 -405 -146 -25 16
573 243 809 359 904 441 151 131 236 275 186 316 -19 16 -123 21 -149 8 -13
-7 -23 -6 -33 5 -13 13 -10 23 28 88 78 135 177 273 278 389 55 63 101 123
101 132 0 26 -43 32 -133 19 -43 -7 -81 -10 -84 -7 -7 7 1 9 107 37 166 42
275 116 406 274 129 155 229 234 429 340 61 32 124 69 140 81 17 12 56 34 87
47 31 14 85 42 120 63 67 39 200 113 308 171 90 47 97 56 78 85 -26 40 -131
66 -293 73 -190 8 -518 35 -527 44 -5 4 157 7 360 6 329 0 385 2 537 23 206
28 419 75 620 137 215 67 431 131 575 170 69 19 152 43 185 54 33 10 112 31
175 45 382 87 415 95 427 112 10 13 9 22 -2 44 -16 31 -102 66 -519 211 -131
46 -235 84 -229 86 5 2 153 -40 329 -93 570 -172 507 -156 615 -150 53 3 141
15 195 26 121 25 268 46 392 55 75 6 97 11 112 27 14 16 27 19 57 16 99 -12
565 -112 588 -126 6 -4 21 -8 35 -10 25 -3 166 -38 290 -73 79 -22 126 -24
133 -6 10 27 -60 138 -158 252 -55 64 -101 121 -103 126 -10 25 23 -2 142
-120z m3146 -3011 c0 -5 -7 -7 -15 -4 -8 4 -15 8 -15 10 0 2 7 4 15 4 8 0 15
-4 15 -10z m-6705 -370 c3 -5 1 -10 -4 -10 -6 0 -11 5 -11 10 0 6 2 10 4 10 3
0 8 -4 11 -10z m3692 -422 c-3 -8 -6 -5 -6 6 -1 11 2 17 5 13 3 -3 4 -12 1
-19z m-73 -28 c-6 -6 -15 -6 -24 0 -13 9 -13 11 0 20 18 11 39 -5 24 -20z
m-78 -61 c3 -6 1 -16 -5 -22 -9 -9 -11 -8 -6 5 4 11 0 18 -12 21 -15 4 -16 5
-1 6 9 0 20 -4 24 -10z m-7596 -3165 c0 -17 -22 -14 -28 4 -2 7 3 12 12 12 9
0 16 -7 16 -16z m0 -32 c0 -4 -9 -13 -20 -20 -19 -12 -20 -11 -8 8 13 20 28
27 28 12z m-226 -117 c-7 -16 -24 -21 -24 -6 0 8 7 13 27 20 1 1 0 -6 -3 -14z
m12323 -127 c-3 -8 -6 -5 -6 6 -1 11 2 17 5 13 3 -3 4 -12 1 -19z m-47 -33 c0
-8 -4 -15 -10 -15 -5 0 -10 7 -10 15 0 8 5 15 10 15 6 0 10 -7 10 -15z
m-12790 -185 c0 -5 -2 -10 -4 -10 -3 0 -8 5 -11 10 -3 6 -1 10 4 10 6 0 11 -4
11 -10z m40 -5 c0 -8 -4 -15 -10 -15 -5 0 -10 7 -10 15 0 8 5 15 10 15 6 0 10
-7 10 -15z m14390 -748 c120 -59 189 -146 190 -237 0 -25 5 -79 11 -120 10
-66 9 -91 -10 -203 -12 -71 -30 -149 -39 -175 -39 -102 -195 -354 -234 -378
-6 -4 -9 -3 -6 2 9 15 127 263 173 364 45 98 75 223 75 309 0 63 -46 142 -107
184 -26 18 -76 54 -112 81 -75 57 -118 75 -181 76 -68 0 -267 -56 -323 -92
-68 -44 -186 -184 -243 -290 -27 -48 -59 -101 -72 -116 l-23 -27 16 40 c28 71
83 160 161 264 91 121 128 155 225 211 41 23 98 58 128 77 84 55 115 63 221
60 81 -2 104 -7 150 -30z m-866 -140 c12 -32 -15 -77 -46 -77 -47 0 -74 56
-45 92 27 35 76 27 91 -15z m1266 -16 c0 -14 -18 -23 -30 -16 -6 4 -8 11 -5
16 8 12 35 12 35 0z m-14860 -201 c-12 -29 -30 -41 -30 -20 0 6 4 10 10 10 5
0 12 11 16 25 4 14 9 24 12 21 2 -3 -1 -19 -8 -36z m12910 -220 c19 -10 44
-72 38 -92 -2 -6 -10 4 -18 23 -26 64 -45 64 -114 -1 -64 -60 -89 -113 -147
-305 -46 -156 -57 -181 -70 -168 -5 5 0 51 12 108 41 201 75 289 141 361 69
76 115 97 158 74z m279 -484 c87 -68 140 -136 94 -122 -76 22 -201 36 -304 33
-107 -4 -120 -6 -185 -39 -66 -32 -214 -141 -214 -157 0 -4 -8 -16 -17 -27
-10 -10 -24 -26 -31 -35 -22 -29 -72 -182 -93 -288 -23 -116 -21 -169 12 -257
12 -30 33 -106 49 -168 15 -62 46 -151 68 -197 26 -55 36 -85 28 -87 -7 -2
-62 6 -122 17 -120 21 -130 28 -179 123 -92 177 -129 402 -90 551 27 104 127
286 210 382 40 45 73 71 136 104 46 24 102 56 124 71 118 80 338 156 422 145
19 -2 58 -23 92 -49z m178 23 c149 -34 281 -106 396 -218 118 -114 217 -265
217 -333 0 -36 -67 -108 -102 -108 -29 0 -52 24 -99 104 -19 32 -64 91 -101
131 -78 83 -236 214 -291 240 -41 19 -210 193 -201 207 7 11 70 3 181 -23z
m-1642 -199 c189 -17 214 -26 365 -143 90 -69 113 -98 93 -118 -13 -13 -134
33 -204 78 -85 56 -96 59 -287 83 -196 24 -233 25 -303 4 -108 -32 -371 -176
-431 -236 -71 -71 -108 -174 -88 -249 9 -34 18 -44 53 -59 23 -10 74 -23 112
-30 39 -6 97 -25 130 -41 33 -16 51 -27 40 -23 -64 19 -159 34 -220 34 -133 1
-195 53 -195 164 0 46 7 73 32 123 46 94 96 144 226 226 269 170 371 210 502
201 30 -2 109 -9 175 -14z m1430 -25 c187 -48 271 -108 411 -290 34 -44 78
-98 97 -120 20 -22 51 -62 69 -89 57 -85 56 -85 169 33 118 124 265 309 291
369 27 59 47 56 36 -5 -4 -27 -11 -88 -16 -138 l-7 -90 -3 83 c-2 60 -6 82
-15 80 -11 -4 -269 -337 -342 -443 -19 -27 -35 -59 -35 -71 0 -11 -12 -79 -26
-150 -14 -71 -29 -181 -33 -244 -10 -156 -23 -184 -101 -218 -59 -26 -76 -50
-30 -44 20 3 22 1 12 -10 -6 -8 -9 -18 -5 -21 3 -4 -5 -7 -19 -7 -15 0 -59
-17 -100 -39 -85 -44 -139 -61 -119 -37 15 18 0 21 -149 36 -87 9 -97 8 -122
-10 l-27 -20 -3 23 c-2 18 -8 21 -36 19 -19 -2 -44 4 -58 13 -20 13 -24 23
-22 56 3 63 -34 90 -163 118 -152 33 -156 38 -25 33 l117 -4 -7 28 c-4 16 -54
101 -112 189 -80 121 -127 181 -193 245 -108 105 -118 131 -94 250 22 105 79
274 104 303 7 9 36 30 64 48 29 18 75 54 103 81 59 57 74 62 197 66 73 2 112
-2 192 -23z m889 -496 c29 -82 25 -262 -8 -393 -39 -149 -126 -293 -186 -309
-23 -6 -25 4 -10 84 10 54 26 171 55 392 8 65 24 140 34 168 23 59 68 122 84
116 7 -2 21 -28 31 -58z m133 -301 c-2 -18 -4 -4 -4 32 0 36 2 50 4 33 2 -18
2 -48 0 -65z m-2677 22 c20 -6 21 -8 5 -8 -11 0 -31 4 -45 8 -20 6 -21 8 -5 8
11 0 31 -4 45 -8z m145 -27 c50 -9 83 -18 75 -20 -8 -1 -55 6 -105 16 -49 10
-83 19 -75 20 8 1 56 -7 105 -16z m-925 -64 c0 -14 -17 -10 -23 5 -4 10 -1 13
9 9 7 -3 14 -9 14 -14z m10 -44 c0 -8 -7 -15 -15 -15 -13 0 -14 3 -3 15 16 18
18 18 18 0z m30 -30 c0 -8 -4 -15 -10 -15 -5 0 -10 7 -10 15 0 8 5 15 10 15 6
0 10 -7 10 -15z m3321 -119 c-30 -43 -85 -88 -64 -53 11 21 87 104 91 101 2
-2 -10 -23 -27 -48z m519 -76 c0 -8 -5 -22 -10 -30 -8 -12 -10 -9 -10 13 0 15
-7 42 -15 60 l-16 32 25 -30 c14 -16 26 -37 26 -45z m-2049 -51 c97 -19 111
-25 204 -87 55 -36 128 -94 162 -129 34 -35 74 -68 88 -73 52 -20 11 -84 -47
-74 -131 24 -280 98 -398 197 -100 84 -169 187 -126 187 7 0 60 -9 117 -21z
m1803 5 c20 -8 21 -38 1 -54 -32 -26 -63 18 -33 48 14 14 12 14 32 6z m-3537
-36 c-3 -8 -6 -5 -6 6 -1 11 2 17 5 13 3 -3 4 -12 1 -19z m2332 -297 c-71 -54
-133 -55 -79 -1 14 14 33 20 61 20 l42 0 -24 -19z m251 -16 c-62 -32 -260 -59
-260 -36 0 24 160 59 238 52 44 -3 45 -4 22 -16z m-396 -69 c-6 -17 -34 -30
-34 -16 0 5 8 14 18 19 22 13 22 13 16 -3z m-558 -177 c18 -18 38 -29 55 -29
41 0 134 37 209 83 83 51 159 87 185 87 13 0 0 -12 -35 -33 -30 -19 -84 -55
-120 -82 -137 -101 -253 -133 -306 -84 -38 35 -64 96 -64 154 l0 50 25 -59
c13 -32 36 -72 51 -87z m-552 104 c-5 -10 -10 -59 -12 -109 -3 -86 -1 -97 39
-205 54 -147 67 -174 153 -294 119 -168 282 -325 339 -325 10 0 50 14 89 30
39 17 73 29 75 26 7 -6 -79 -76 -119 -97 -79 -41 -142 -18 -272 97 -187 165
-353 428 -387 610 -12 63 2 177 26 224 23 44 89 84 69 43z m-904 -283 c0 -5
-4 -10 -10 -10 -5 0 -10 5 -10 10 0 6 5 10 10 10 6 0 10 -4 10 -10z m-23 -92
c-3 -7 -5 -2 -5 12 0 14 2 19 5 13 2 -7 2 -19 0 -25z m1813 -119 c-45 -138
-68 -193 -69 -168 -1 14 31 111 90 279 7 19 14 29 16 23 2 -6 -14 -66 -37
-134z m-223 99 c48 -45 18 -131 -47 -131 -64 0 -94 81 -48 130 27 29 65 29 95
1z m-1607 -158 c0 -5 -4 -10 -10 -10 -5 0 -10 5 -10 10 0 6 5 10 10 10 6 0 10
-4 10 -10z m-70 -200 c0 -5 -4 -10 -10 -10 -5 0 -10 5 -10 10 0 6 5 10 10 10
6 0 10 -4 10 -10z m2657 -459 c-3 -14 6 -25 42 -45 45 -25 46 -26 15 -26 -37
0 -105 67 -82 81 21 14 31 10 25 -10z m247 -26 c-4 -8 -8 -15 -10 -15 -2 0 -4
7 -4 15 0 8 4 15 10 15 5 0 7 -7 4 -15z m-347 -12 c-4 -3 -2 -12 4 -19 9 -11
4 -22 -20 -49 -17 -20 -31 -39 -31 -43 0 -16 59 -3 105 23 35 19 50 23 55 14
5 -7 13 -8 21 -3 12 6 12 5 0 -9 -17 -21 -2 -42 35 -51 15 -4 22 -11 18 -18
-4 -6 -10 -29 -14 -49 -6 -30 -3 -43 11 -58 10 -11 15 -23 10 -26 -5 -3 -12
-1 -16 5 -3 5 -15 10 -26 10 -24 0 -26 45 -3 71 19 21 11 39 -19 39 -27 0 -55
-49 -35 -61 16 -10 -10 -42 -29 -35 -7 3 -13 1 -13 -4 0 -6 -7 -10 -16 -10 -8
0 -12 5 -9 10 3 6 1 10 -5 10 -6 0 -13 -7 -16 -15 -4 -8 -11 -15 -18 -15 -6 0
-44 -25 -85 -56 -41 -30 -82 -56 -91 -57 -10 0 -16 -6 -14 -12 2 -5 -20 -28
-47 -50 -28 -22 -58 -47 -67 -56 -10 -9 -44 -34 -77 -56 -66 -43 -214 -142
-315 -211 -36 -24 -84 -59 -107 -78 -23 -19 -45 -34 -50 -34 -4 0 -30 -20 -58
-45 -27 -24 -54 -45 -60 -45 -5 -1 -28 -19 -50 -40 -22 -22 -46 -40 -54 -40
-7 0 -11 -6 -8 -13 4 -10 -2 -13 -19 -9 -17 3 -24 0 -24 -11 0 -9 -9 -18 -19
-22 -11 -3 -23 -15 -26 -26 -4 -10 -10 -19 -13 -19 -4 0 -9 -12 -10 -26 -2
-21 1 -24 18 -19 11 4 20 2 20 -4 0 -19 46 -12 65 9 21 24 102 70 121 70 8 0
14 4 14 9 0 5 19 19 43 31 23 12 65 36 92 54 62 39 79 48 185 105 47 25 112
60 145 78 33 18 67 36 75 39 8 4 29 17 45 29 63 46 268 156 281 151 8 -3 14
-2 14 3 0 5 12 12 27 16 15 3 30 10 33 14 18 26 168 107 213 115 37 6 35 -11
-5 -55 -18 -19 -46 -50 -63 -70 -32 -38 -187 -159 -325 -254 -47 -32 -112 -77
-145 -100 -33 -23 -136 -95 -230 -160 -235 -164 -362 -254 -487 -348 l-107
-79 59 -62 c33 -33 60 -69 60 -80 0 -27 449 -476 476 -476 11 0 29 -9 39 -20
10 -11 28 -20 40 -20 12 0 30 -9 40 -20 10 -11 25 -20 34 -20 9 0 34 -9 56
-20 22 -11 52 -20 67 -20 16 0 54 -9 85 -20 32 -11 64 -20 73 -20 9 0 33 -9
55 -20 22 -11 54 -20 72 -20 22 0 36 -6 43 -20 6 -11 21 -20 33 -20 28 0 127
-97 127 -125 0 -12 16 -37 36 -56 20 -18 44 -52 54 -74 9 -22 27 -49 39 -59
11 -11 21 -27 21 -36 0 -10 9 -29 20 -43 11 -14 20 -32 20 -40 0 -9 10 -28 23
-44 13 -15 40 -64 61 -108 33 -69 39 -94 47 -185 4 -58 8 -150 8 -206 l1 -100
58 -26 c71 -31 85 -18 31 31 -38 36 -63 91 -40 91 52 0 154 -96 198 -184 18
-37 36 -59 55 -67 33 -13 37 -29 7 -29 -19 0 -20 -4 -13 -47 9 -66 14 -71 32
-32 19 46 28 20 12 -37 -9 -32 -16 -42 -23 -35 -16 16 -24 13 -30 -10 -5 -18
-8 -19 -26 -7 -12 7 -21 19 -21 26 0 8 -6 12 -15 9 -8 -4 -35 6 -62 20 l-47
27 20 -27 c10 -14 26 -29 36 -32 21 -7 31 -32 15 -41 -7 -4 -9 -4 -5 1 10 11
-20 38 -36 32 -7 -3 -26 1 -41 9 -34 17 -35 17 -35 -1 0 -8 9 -15 19 -15 10 0
21 -6 24 -14 3 -8 14 -15 24 -15 44 -1 69 -7 76 -19 4 -6 17 -12 27 -12 11 0
20 -4 20 -10 0 -5 6 -10 13 -10 8 0 22 -9 33 -21 14 -16 15 -22 5 -28 -9 -6
-5 -14 16 -29 l28 -21 -32 -13 c-19 -7 -33 -20 -33 -29 0 -8 -7 -16 -15 -16
-8 0 -15 9 -15 21 0 12 -5 28 -11 36 -9 13 -10 13 -8 0 3 -21 -11 -50 -23 -50
-6 0 -5 6 2 15 10 12 10 15 -3 15 -9 0 -18 -4 -21 -9 -6 -9 -76 13 -108 34
-10 6 -31 10 -47 7 -35 -5 -33 -21 8 -66 l26 -29 -28 18 c-37 23 -113 29 -121
8 -5 -12 -1 -14 15 -10 15 4 19 2 15 -9 -3 -8 1 -14 9 -14 8 0 15 -9 15 -21 0
-20 -1 -20 -31 -2 -24 13 -33 15 -36 6 -3 -7 -11 -13 -18 -13 -7 0 -12 -8 -11
-17 0 -12 -7 -19 -22 -21 -12 -2 -20 -8 -16 -13 6 -10 -61 -88 -106 -124 l-25
-20 19 30 c11 17 35 45 54 63 35 34 38 51 5 34 -10 -5 -36 -12 -58 -15 -69
-10 -73 -12 -114 -59 -44 -49 -82 -69 -74 -38 3 10 16 28 29 41 30 28 31 39 2
32 -31 -8 -59 -33 -51 -47 4 -6 -1 -5 -10 3 -9 7 -17 22 -17 32 0 11 -2 19 -4
19 -3 0 -33 -19 -67 -42 -80 -55 -75 -53 -139 -71 -30 -9 -77 -23 -105 -32
-27 -9 -58 -19 -67 -22 -12 -3 -18 0 -18 11 0 18 -25 22 -35 5 -4 -6 -13 -8
-21 -5 -8 3 -18 -2 -21 -11 -4 -9 -1 -19 5 -21 7 -2 12 -8 12 -13 0 -6 -4 -7
-10 -4 -5 3 -23 -1 -40 -10 -31 -16 -31 -16 -20 6 7 12 41 51 76 88 56 57 66
64 81 54 47 -33 76 -44 86 -34 7 7 5 12 -6 17 -9 3 -17 12 -17 20 0 9 -11 14
-30 14 l-31 0 23 23 c20 20 100 90 178 155 14 11 36 30 50 41 l25 21 -35 -4
c-19 -3 -69 -8 -110 -11 -174 -15 -275 -57 -391 -165 -41 -38 -79 -69 -85 -70
-6 0 -19 -9 -30 -21 -10 -12 -53 -47 -96 -79 l-76 -58 96 -12 c54 -6 111 -15
127 -20 87 -26 235 -88 235 -100 0 -4 -19 -20 -41 -35 -23 -15 -56 -42 -74
-59 -30 -30 -36 -32 -113 -35 -47 -1 -91 3 -103 10 -12 6 -19 7 -15 1 5 -9
-28 -12 -274 -27 -43 -3 -109 -18 -420 -98 -74 -19 -153 -37 -175 -41 l-40 -6
30 14 30 14 -40 3 c-22 1 -57 1 -77 0 -25 -2 -38 2 -38 10 0 7 -3 9 -7 6 -3
-4 -12 1 -19 11 -9 13 -10 20 -1 31 10 12 9 13 -1 7 -9 -5 -15 -1 -19 13 -4
16 -11 19 -34 14 -18 -3 -29 -1 -29 6 0 6 -8 11 -18 11 -9 0 -23 10 -31 21 -9
16 -15 19 -21 9 -4 -6 -18 -11 -31 -11 -62 4 -107 3 -134 -3 -16 -4 -39 -8
-50 -10 -11 -2 -27 -5 -35 -8 -8 -3 -35 -11 -60 -19 -25 -7 -49 -15 -55 -18
-5 -3 -26 -4 -46 -2 -24 1 -38 -2 -42 -12 -6 -16 -47 -30 -47 -16 0 5 -9 9
-20 9 -11 0 -20 -7 -20 -15 0 -20 -5 -19 -39 6 -16 12 -34 18 -40 15 -6 -4
-11 -3 -11 3 0 5 10 13 23 16 12 4 38 14 57 22 19 9 95 37 170 64 74 26 169
61 212 78 42 17 85 31 95 31 11 0 24 5 29 10 13 13 240 80 270 80 38 0 36 16
-4 43 -91 60 -204 90 -284 77 -56 -10 -146 -46 -305 -121 -123 -58 -235 -76
-383 -61 -121 12 -307 51 -375 78 -88 35 -153 67 -211 105 -33 21 -65 39 -71
39 -6 0 -16 7 -23 15 -6 7 -35 28 -63 45 -79 47 -130 85 -193 144 l-57 54 -23
-25 -24 -26 -1 24 c-1 13 -1 31 0 40 1 9 -6 22 -14 29 -14 12 -18 11 -25 -1
-8 -12 -12 -11 -27 4 -14 14 -15 17 -3 18 8 0 4 5 -10 10 -17 7 -26 7 -28 0
-2 -7 -10 -8 -20 -3 -27 13 -40 9 -72 -22 -17 -16 -34 -26 -37 -22 -3 3 4 14
15 25 22 19 31 48 11 35 -7 -4 -9 0 -5 12 7 24 -47 86 -68 78 -8 -3 -17 -1
-21 5 -14 23 -23 10 -14 -21 9 -33 4 -53 -7 -24 -14 35 -19 31 -233 -177 -80
-79 -196 -200 -316 -333 -16 -18 -52 -60 -80 -92 -27 -33 -60 -65 -72 -71 -30
-14 -55 -4 -51 23 2 15 -3 21 -17 22 -35 2 -36 3 -22 36 8 18 14 37 14 41 2
24 28 67 44 72 23 8 24 18 4 35 -13 11 -22 5 -56 -34 -23 -26 -44 -45 -47 -42
-5 6 106 163 128 180 8 6 28 29 43 51 15 22 46 65 68 95 22 30 48 66 57 80 29
44 143 169 317 350 174 180 676 715 731 779 25 30 90 188 81 198 -2 1 -16 -5
-32 -14 -82 -44 -100 -51 -112 -42 -12 10 -18 5 -48 -36 -14 -19 -15 -19 -8
-1 4 13 3 17 -5 12 -7 -4 -12 -13 -12 -19 -1 -17 -100 -77 -128 -77 -13 0 -20
4 -17 10 4 6 -9 2 -28 -7 -19 -10 -33 -21 -31 -25 3 -4 -18 -22 -46 -40 -27
-18 -50 -36 -50 -41 0 -4 -5 -5 -11 -2 -5 4 -19 -1 -30 -11 -11 -9 -41 -31
-68 -48 -27 -17 -97 -67 -155 -111 -220 -164 -457 -338 -576 -422 -68 -48
-134 -99 -493 -377 -59 -46 -149 -122 -200 -168 -89 -82 -109 -100 -233 -198
-58 -45 -123 -67 -111 -36 4 10 1 13 -8 10 -8 -3 -11 -12 -8 -20 9 -24 -6 -63
-32 -80 -32 -21 -39 -15 -25 21 10 26 9 27 -7 14 -27 -21 -33 -33 -20 -41 6
-4 8 -11 3 -15 -5 -4 -11 -2 -13 5 -3 6 -9 10 -14 7 -5 -4 -6 0 -3 8 6 17 -36
31 -50 17 -6 -6 -14 -10 -18 -10 -13 0 -9 28 5 33 9 3 9 7 0 17 -7 8 -8 22 -3
41 5 17 5 29 -1 29 -8 0 -13 -14 -10 -32 0 -6 -72 -22 -85 -18 -4 1 -10 -4
-15 -11 -6 -10 -10 -9 -15 5 -4 10 -3 21 3 25 5 3 29 29 53 56 25 28 34 41 20
30 -14 -11 -7 0 15 23 22 24 41 38 43 32 2 -5 8 -7 13 -4 6 3 22 3 37 -1 23
-6 25 -8 11 -18 -22 -17 -30 -54 -13 -61 8 -3 14 1 14 9 0 8 6 15 14 15 20 0
45 32 29 37 -7 3 -13 11 -13 18 0 8 -8 18 -17 24 -16 9 -16 13 -5 31 11 18 11
21 0 15 -19 -9 48 49 112 98 30 23 98 76 150 118 52 41 113 86 135 99 22 13
81 56 130 96 50 39 101 76 113 83 12 6 33 23 48 36 15 14 31 25 37 25 5 0 15
7 21 14 6 8 18 16 26 18 8 2 21 11 28 20 6 9 58 47 115 85 56 37 104 70 107
73 3 3 28 19 55 35 66 38 176 117 246 177 31 26 59 48 63 48 3 0 25 15 49 33
24 18 106 68 183 111 188 106 293 169 396 237 159 107 394 232 531 284 l47 18
0 67 c0 54 4 70 20 85 16 15 20 31 20 86 0 58 3 70 20 79 16 8 20 21 20 60 0
39 4 52 20 60 13 7 20 21 20 40 0 19 7 33 20 40 16 8 20 21 20 60 0 39 4 52
20 60 13 7 20 21 20 40 0 19 7 33 20 40 18 10 20 21 20 140 0 119 2 130 20
140 13 7 20 21 20 40 0 19 7 33 20 40 12 6 20 21 20 36 0 19 17 43 60 84 36
35 60 66 60 79 0 33 532 561 565 561 14 0 29 8 35 20 8 16 21 20 60 20 39 0
52 -4 60 -20 6 -12 21 -20 36 -20 33 0 81 -48 86 -86 2 -24 8 -30 32 -32 21
-3 51 -26 107 -83 53 -54 85 -79 101 -79 14 0 36 -15 58 -40 23 -26 44 -40 60
-40 16 0 37 -14 60 -40 24 -28 43 -40 62 -40 15 0 31 -7 35 -15 7 -12 30 2
110 68 56 45 122 96 145 113 24 17 86 62 138 101 52 38 145 101 206 139 62 38
140 87 175 109 35 22 105 65 154 95 120 74 209 131 469 304 198 131 243 160
223 139z m283 -8 c-28 -16 -80 -21 -64 -6 8 9 41 17 74 19 8 1 4 -5 -10 -13z
m-3080 -35 c0 -5 -4 -10 -10 -10 -5 0 -10 5 -10 10 0 6 5 10 10 10 6 0 10 -4
10 -10z m3154 -45 c10 -16 14 -34 10 -50 -7 -27 -26 -24 -23 3 4 40 -1 63 -13
56 -7 -4 -8 -3 -4 4 10 16 11 16 30 -13z m-3162 -25 c-12 -12 -22 -18 -22 -14
0 10 34 42 39 38 3 -2 -5 -13 -17 -24z m3048 -100 c0 -5 -4 -10 -10 -10 -5 0
-10 5 -10 10 0 6 5 10 10 10 6 0 10 -4 10 -10z m110 -5 c-7 -8 -20 -15 -28
-15 -13 0 -12 3 4 15 25 19 40 19 24 0z m-3342 -144 c-15 -5 -21 7 -13 26 7
17 8 17 15 -2 4 -11 3 -22 -2 -24z m-258 -316 c-7 -8 -16 -15 -21 -15 -5 0 -1
8 9 18 20 22 31 19 12 -3z m-130 -145 c0 -5 -4 -10 -10 -10 -5 0 -10 5 -10 10
0 6 5 10 10 10 6 0 10 -4 10 -10z m2230 -330 c0 -5 -5 -10 -11 -10 -5 0 -7 5
-4 10 3 6 8 10 11 10 2 0 4 -4 4 -10z m-5710 -640 c0 -5 -9 -10 -20 -10 -11 0
-20 5 -20 10 0 6 9 10 20 10 11 0 20 -4 20 -10z m690 -970 c-13 -9 -13 -11 0
-20 13 -8 13 -10 -1 -10 -17 0 -32 24 -22 34 4 3 13 6 22 6 14 0 14 -2 1 -10z
m-214 -97 c-10 -10 -19 5 -10 18 6 11 8 11 12 0 2 -7 1 -15 -2 -18z m7672 -80
c3 -79 2 -81 -22 -85 -14 -3 -28 -3 -31 1 -3 3 -21 4 -40 2 -52 -4 -65 10 -24
25 18 7 44 13 56 13 46 2 69 63 42 113 -9 16 -8 19 3 16 9 -3 14 -29 16 -85z
m-7547 -243 c5 0 9 -7 9 -16 0 -9 6 -30 13 -47 18 -42 36 -97 32 -97 -2 0 -18
23 -36 51 -41 65 -68 91 -88 84 -9 -2 -23 0 -31 5 -13 8 -13 10 0 14 25 9 64
13 78 10 8 -2 18 -4 23 -4z m175 -254 c10 -8 16 -17 13 -20 -3 -4 -17 2 -30
13 -27 23 -13 28 17 7z m7779 -347 c11 -16 1 -19 -13 -3 -7 8 -8 14 -3 14 5 0
13 -5 16 -11z m45 -35 c0 -8 -5 -12 -10 -9 -6 4 -8 11 -5 16 9 14 15 11 15 -7z
m-145 -46 c-3 -29 -7 -63 -11 -76 -5 -18 -3 -21 10 -16 9 3 16 1 16 -6 0 -6
-10 -10 -22 -8 -21 3 -23 9 -24 68 -1 74 2 90 22 90 10 0 12 -13 9 -52z m45
-117 c0 -28 -20 4 -25 39 l-5 35 14 -30 c9 -16 15 -37 16 -44z m-5660 15 c-11
-5 -20 -15 -20 -22 0 -7 -6 -11 -13 -8 -8 3 -14 -2 -14 -10 0 -9 9 -18 19 -22
10 -3 18 -13 18 -22 -1 -15 -3 -14 -16 3 -10 14 -17 16 -22 8 -5 -8 -13 -9
-22 -3 -13 8 -13 10 0 10 12 0 15 8 12 33 -2 19 3 40 13 52 16 20 16 19 10 -5
-5 -23 -4 -23 11 4 16 29 17 29 31 10 12 -17 12 -20 -7 -28z m5596 -43 c-10
-10 -19 5 -10 18 6 11 8 11 12 0 2 -7 1 -15 -2 -18z m-5476 -4 c0 -6 -4 -7
-10 -4 -5 3 -10 11 -10 16 0 6 5 7 10 4 6 -3 10 -11 10 -16z m5516 -5 c-4 -12
-2 -15 9 -10 9 3 15 0 15 -9 0 -18 -1 -18 -33 -2 -20 11 -23 17 -15 25 17 17
31 15 24 -4z m-1031 -14 c3 -5 2 -10 -4 -10 -5 0 -13 5 -16 10 -3 6 -2 10 4
10 5 0 13 -4 16 -10z m910 -10 c17 -11 26 -20 22 -20 -11 0 -67 29 -67 35 0
10 16 4 45 -15z m168 -99 c35 -19 34 -31 -2 -31 -16 0 -36 -3 -44 -6 -15 -5
-70 41 -64 54 2 4 7 15 11 26 6 17 8 17 39 -6 17 -13 44 -30 60 -37z m-1273
-112 c0 -15 -18 -19 -23 -6 -3 8 1 14 9 14 8 0 14 -4 14 -8z m-23 -44 c-16
-15 -53 -35 -66 -35 -19 0 -12 22 17 49 24 23 29 25 44 13 14 -11 15 -17 5
-27z m-2777 -520 c0 -9 -6 -12 -15 -9 -8 4 -12 10 -9 15 8 14 24 10 24 -6z"/>
<path d="M9570 16849 c-36 -7 -164 -47 -235 -73 -92 -33 -218 -107 -303 -177
-50 -41 -91 -77 -91 -81 -1 -5 80 -8 178 -8 113 0 181 -4 183 -10 2 -6 48 -11
109 -13 86 -2 108 1 122 14 9 9 32 20 52 23 19 4 35 10 35 15 0 4 25 14 55 21
30 7 55 16 55 20 0 4 21 11 48 15 26 4 49 11 52 16 3 4 51 14 105 20 55 7 103
17 106 22 4 5 98 12 210 15 112 4 194 8 182 10 -13 2 -23 7 -23 12 0 4 -37 13
-82 20 -46 6 -85 16 -89 21 -3 5 -43 14 -90 21 -46 6 -86 15 -89 19 -3 5 -48
14 -100 20 -52 7 -97 16 -100 20 -3 4 -57 12 -120 19 -63 7 -119 15 -125 19
-5 4 -26 4 -45 0z"/>
<path d="M12967 16448 c3 -40 11 -76 17 -80 7 -5 6 -8 -4 -8 -10 0 -11 -3 -4
-8 6 -4 17 -45 24 -92 6 -47 16 -87 21 -90 13 -9 29 -134 29 -234 0 -100 -19
-266 -30 -266 -4 0 -13 -28 -20 -62 -7 -35 -16 -65 -20 -68 -13 -11 -26 -113
-20 -160 7 -52 15 -69 27 -56 4 4 1 11 -7 16 -8 5 -11 12 -7 16 3 4 13 1 22
-6 10 -8 15 -9 15 -1 0 6 5 11 10 11 6 0 10 -9 10 -20 0 -11 -4 -20 -10 -20
-5 0 -1 -9 10 -20 11 -11 25 -20 30 -20 6 0 11 -26 12 -57 2 -79 -1 -96 -15
-105 -9 -6 -9 -8 1 -8 7 0 17 11 22 25 5 14 19 35 30 47 11 12 20 25 20 30 0
8 9 20 64 80 19 21 40 51 48 68 7 16 16 30 19 30 4 0 10 16 13 35 4 19 11 35
16 35 4 0 11 18 15 40 4 22 13 47 20 54 8 8 19 34 26 60 6 25 15 46 19 46 4 0
13 20 19 45 6 25 15 45 20 45 5 0 14 23 21 50 7 28 15 50 19 50 4 0 13 20 20
45 7 25 17 45 21 45 4 0 13 20 19 45 6 25 15 45 19 45 4 0 13 13 19 30 10 26
8 32 -14 55 -14 14 -30 25 -35 25 -5 0 -23 16 -41 35 -17 19 -37 35 -44 35 -7
0 -17 9 -23 20 -6 11 -17 20 -25 20 -8 0 -15 4 -15 8 0 5 -16 14 -35 22 -19 7
-36 19 -39 26 -3 7 -18 15 -35 19 -17 4 -31 10 -31 15 0 5 -9 12 -21 15 -12 4
-49 34 -82 66 -33 33 -71 62 -83 65 -12 3 -25 12 -28 20 -3 8 -12 14 -20 14
-12 0 -14 -13 -9 -72z"/>
<path d="M15401 15384 c0 -11 3 -14 6 -6 3 7 2 16 -1 19 -3 4 -6 -2 -5 -13z"/>
<path d="M15420 15307 c-14 -7 -26 -23 -28 -37 l-4 -25 20 23 c11 12 24 22 30
22 5 0 12 7 16 15 7 18 -1 19 -34 2z"/>
<path d="M12970 15290 c0 -11 5 -20 10 -20 6 0 10 9 10 20 0 11 -4 20 -10 20
-5 0 -10 -9 -10 -20z"/>
<path d="M15353 15277 c-14 -6 -23 -18 -22 -31 0 -12 3 -15 6 -8 8 21 35 14
28 -8 -5 -16 -2 -20 15 -20 14 0 19 4 14 12 -4 6 -10 23 -13 38 -5 24 -9 26
-28 17z"/>
<path d="M15441 15264 c0 -11 3 -14 6 -6 3 7 2 16 -1 19 -3 4 -6 -2 -5 -13z"/>
<path d="M15295 15240 c-4 -6 -10 -8 -15 -5 -4 3 -23 -7 -40 -22 -27 -23 -30
-27 -15 -35 10 -6 21 -6 29 1 7 6 16 8 19 4 4 -3 7 1 7 10 0 10 8 17 20 17 13
0 20 7 20 20 0 21 -15 27 -25 10z"/>
<path d="M8890 15055 c0 -9 5 -15 11 -13 6 2 11 8 11 13 0 5 -5 11 -11 13 -6
2 -11 -4 -11 -13z"/>
<path d="M8798 14916 c-25 -18 -22 -26 7 -26 18 0 25 5 25 20 0 23 -8 25 -32
6z"/>
<path d="M12548 14733 c7 -3 16 -2 19 1 4 3 -2 6 -13 5 -11 0 -14 -3 -6 -6z"/>
<path d="M12430 14400 c0 -5 5 -10 10 -10 6 0 10 5 10 10 0 6 -4 10 -10 10 -5
0 -10 -4 -10 -10z"/>
<path d="M12467 14279 c3 -10 0 -19 -6 -19 -6 0 -11 -10 -10 -22 l0 -23 9 23
c5 12 13 22 19 22 5 0 11 8 13 18 3 12 -1 18 -12 19 -13 1 -16 -4 -13 -18z"/>
<path d="M8450 12777 c0 -9 4 -18 9 -21 5 -3 7 -15 4 -25 -3 -11 1 -21 9 -24
7 -2 5 -3 -4 -2 -11 2 -18 -3 -18 -13 0 -14 -2 -14 -9 -3 -6 9 -5 21 2 32 19
31 -1 34 -29 4 -16 -17 -19 -25 -9 -21 10 3 14 2 10 -5 -8 -12 14 -109 25
-109 4 0 13 -27 20 -60 7 -33 16 -57 20 -55 5 3 11 -13 15 -35 4 -22 10 -40
15 -40 4 0 13 -20 19 -45 6 -25 15 -45 20 -45 5 0 12 -15 15 -33 7 -37 34 -64
80 -80 17 -6 37 -17 44 -24 7 -7 20 -13 28 -13 8 0 14 -4 14 -8 0 -5 18 -15
40 -22 22 -7 40 -17 40 -21 0 -4 16 -13 35 -20 19 -7 35 -16 35 -19 0 -4 16
-12 35 -20 19 -8 35 -17 35 -21 0 -4 14 -12 30 -18 17 -5 30 -14 30 -19 0 -4
16 -14 35 -22 19 -8 35 -17 35 -20 0 -4 18 -13 40 -20 22 -7 40 -16 40 -20 0
-4 18 -12 40 -19 22 -6 40 -16 40 -21 0 -6 9 -10 20 -10 16 0 20 7 20 30 0 17
5 30 10 30 6 0 10 53 10 140 0 127 -2 143 -20 162 -11 12 -20 28 -20 35 0 7
-4 13 -8 13 -4 0 -14 20 -21 44 -7 25 -19 47 -27 50 -8 3 -14 11 -14 19 0 7
-13 24 -30 37 -16 14 -29 30 -30 35 0 6 -13 23 -30 38 -16 16 -30 33 -30 37 0
17 -46 59 -72 65 -14 4 -32 18 -39 33 -18 34 -49 64 -85 82 -16 8 -31 17 -34
20 -19 19 -57 30 -104 30 -30 0 -56 5 -58 10 -2 6 -54 13 -116 17 -98 5 -112
4 -112 -10z"/>
<path d="M12660 12610 c0 -5 5 -10 10 -10 6 0 10 5 10 10 0 6 -4 10 -10 10 -5
0 -10 -4 -10 -10z"/>
<path d="M13670 12070 c0 -5 5 -10 10 -10 6 0 10 5 10 10 0 6 -4 10 -10 10 -5
0 -10 -4 -10 -10z"/>
<path d="M13701 12033 c-1 -17 -7 -23 -25 -23 -42 0 -86 -12 -86 -24 0 -7 13
-23 30 -36 16 -14 42 -35 57 -47 16 -13 34 -23 41 -23 6 0 12 -4 12 -9 0 -5 9
-13 20 -16 11 -3 27 -13 36 -22 13 -14 17 -14 25 -2 6 9 3 18 -9 27 -13 10
-14 14 -4 21 10 6 8 10 -8 14 -15 4 -21 11 -17 20 4 10 -2 17 -15 20 -14 4
-19 11 -15 21 4 9 2 16 -3 16 -5 0 -7 6 -4 14 3 7 -1 20 -9 27 -8 8 -16 21
-20 29 -3 10 -6 7 -6 -7z"/>
<path d="M13090 12030 c0 -5 5 -10 10 -10 6 0 10 5 10 10 0 6 -4 10 -10 10 -5
0 -10 -4 -10 -10z"/>
<path d="M13615 12030 c-4 -6 5 -10 19 -10 14 0 26 5 26 10 0 6 -9 10 -19 10
-11 0 -23 -4 -26 -10z"/>
<path d="M16771 11024 c0 -11 3 -14 6 -6 3 7 2 16 -1 19 -3 4 -6 -2 -5 -13z"/>
<path d="M12855 9913 c3 -15 15 -33 26 -41 10 -7 19 -19 19 -26 0 -8 7 -16 15
-20 8 -3 15 -12 15 -20 0 -7 6 -16 14 -19 8 -3 17 -19 21 -36 4 -17 10 -31 14
-31 4 0 13 -16 20 -35 7 -19 16 -35 21 -35 5 0 12 -9 15 -20 3 -11 12 -26 18
-33 19 -21 37 -55 37 -72 0 -8 4 -15 9 -15 5 0 15 -25 22 -55 7 -30 15 -55 19
-55 4 0 13 -27 21 -60 7 -33 16 -60 20 -60 4 0 12 -22 19 -50 7 -27 16 -50 21
-50 5 0 14 -20 20 -45 6 -25 15 -45 20 -45 5 0 11 -22 15 -50 4 -27 10 -50 14
-50 7 0 30 -114 30 -154 0 -14 5 -26 10 -26 6 0 10 -10 10 -22 0 -31 23 -142
31 -148 11 -9 18 -84 25 -275 4 -104 10 -192 14 -195 4 -3 10 -62 13 -132 6
-113 9 -132 32 -168 33 -52 33 -97 1 -111 -21 -10 -25 -20 -32 -98 -4 -47 -8
-90 -9 -96 0 -5 -4 -13 -9 -17 -6 -4 -5 -12 2 -21 7 -7 8 -17 4 -22 -4 -4 11
-5 33 0 22 4 54 9 70 11 l30 4 -30 -12 c-16 -6 -35 -16 -42 -22 -7 -6 -19 -17
-27 -24 -12 -9 -13 -18 -6 -38 14 -35 13 -77 -1 -68 -22 13 3 -403 26 -434 6
-7 35 12 35 23 0 7 11 23 25 36 13 13 25 29 25 34 0 6 12 21 25 34 14 13 25
29 25 35 0 7 11 19 25 26 14 7 25 18 25 24 0 6 11 24 25 40 14 16 25 35 25 43
0 7 6 16 14 19 8 3 18 19 21 35 4 16 12 32 19 36 7 5 19 25 25 46 7 20 16 37
20 37 4 0 13 16 21 35 8 19 16 35 19 35 4 0 13 15 20 33 8 17 21 38 28 45 7 7
13 20 13 28 0 12 -10 13 -50 8 -54 -7 -73 11 -22 22 15 3 50 12 79 20 50 14
51 15 64 64 7 28 16 50 20 50 5 0 14 27 21 60 6 33 15 60 19 60 13 0 23 77 24
186 0 62 -4 107 -8 100 -5 -6 -6 8 -4 32 4 30 1 42 -8 42 -16 0 -26 25 -18 46
3 9 0 20 -7 24 -11 7 -12 18 -3 57 11 48 6 63 -22 63 -5 0 -3 -4 5 -10 8 -5
11 -12 7 -17 -5 -4 -12 -1 -17 6 -9 16 -2 42 14 53 7 5 5 8 -5 8 -11 0 -19 12
-23 35 -4 19 -11 35 -16 35 -6 0 -10 6 -10 13 0 8 -9 24 -20 37 -11 13 -23 34
-26 47 -4 13 -10 23 -15 23 -5 0 -14 11 -19 25 -5 14 -14 25 -20 25 -5 0 -10
6 -10 13 0 7 -9 23 -20 35 -11 12 -20 26 -20 31 0 5 -9 16 -19 23 -11 8 -23
26 -27 42 -3 15 -12 30 -19 33 -7 2 -16 15 -19 27 -3 12 -15 33 -26 46 -11 13
-20 31 -20 40 0 9 -9 27 -20 40 -11 13 -20 29 -20 37 0 7 -4 13 -9 13 -5 0
-12 13 -16 30 -4 16 -12 33 -18 37 -7 5 -19 21 -27 37 -8 16 -30 45 -47 65
-56 61 -63 71 -63 81 0 5 -9 15 -20 22 -11 7 -20 18 -20 24 0 6 -22 34 -50 63
-27 29 -50 56 -50 62 0 5 -4 9 -10 9 -15 0 -50 33 -50 47 0 7 -7 13 -15 13 -9
0 -19 8 -22 18 -8 21 -55 67 -65 64 -5 -1 -8 2 -8 8 0 5 -22 32 -50 60 -27 28
-50 54 -50 60 0 8 -46 56 -125 129 -14 13 -25 29 -25 37 0 8 -7 14 -16 14 -13
0 -15 -6 -9 -27z m1145 -1568 c0 -8 -4 -15 -10 -15 -5 0 -10 7 -10 15 0 8 5
15 10 15 6 0 10 -7 10 -15z m-213 -771 c-3 -3 -12 -4 -19 -1 -8 3 -5 6 6 6 11
1 17 -2 13 -5z m-140 -30 c-3 -3 -12 -4 -19 -1 -8 3 -5 6 6 6 11 1 17 -2 13
-5z"/>
<path d="M9982 9230 c-40 -11 -91 -28 -115 -38 -44 -20 -217 -131 -252 -162
-11 -10 -45 -30 -75 -46 -131 -66 -334 -212 -477 -342 -133 -121 -383 -377
-475 -487 -46 -55 -113 -131 -150 -170 -136 -144 -265 -306 -399 -502 -210
-308 -268 -416 -371 -683 -74 -194 -90 -308 -63 -450 51 -260 81 -380 95 -380
5 0 12 -10 16 -22 3 -11 23 -44 43 -73 65 -93 76 -104 99 -98 16 4 36 -9 83
-53 34 -33 68 -73 75 -91 8 -17 27 -41 44 -53 16 -12 30 -26 30 -32 0 -21 162
-162 263 -228 175 -114 238 -149 332 -185 79 -30 323 -72 460 -79 139 -8 323
-25 483 -46 108 -15 297 -12 377 5 142 30 194 52 590 245 355 174 597 255 927
313 98 17 204 69 282 138 58 51 75 84 87 163 21 150 107 347 217 495 52 71
285 311 301 311 5 0 19 9 32 21 13 12 43 34 65 51 23 16 47 40 54 54 8 13 17
24 21 24 13 0 85 74 111 115 36 56 62 182 55 270 -6 85 -41 196 -78 250 -15
23 -39 63 -55 90 -27 50 -102 155 -165 231 -19 23 -51 66 -72 96 -21 29 -51
62 -66 72 -15 11 -36 32 -47 48 -10 16 -28 34 -38 40 -18 10 -255 188 -283
213 -6 5 -57 46 -113 90 -56 44 -143 114 -194 155 -190 154 -299 236 -356 270
-33 19 -76 47 -97 61 -215 148 -506 310 -633 352 -87 29 -256 56 -375 61 -96
4 -134 1 -193 -14z"/>
<path d="M14060 8050 c0 -22 5 -40 10 -40 6 0 10 18 10 40 0 22 -4 40 -10 40
-5 0 -10 -18 -10 -40z"/>
<path d="M14782 7710 c0 -14 2 -19 5 -12 2 6 2 18 0 25 -3 6 -5 1 -5 -13z"/>
<path d="M14800 7710 c0 -5 5 -10 10 -10 6 0 10 5 10 10 0 6 -4 10 -10 10 -5
0 -10 -4 -10 -10z"/>
<path d="M14791 7610 c-1 -14 -4 -36 -6 -50 l-6 -25 11 25 c6 13 9 36 7 50
l-4 25 -2 -25z"/>
<path d="M14800 7360 c0 -5 5 -10 10 -10 6 0 10 5 10 10 0 6 -4 10 -10 10 -5
0 -10 -4 -10 -10z"/>
<path d="M11596 4259 c11 -12 13 -19 5 -19 -7 0 -9 -5 -6 -10 4 -6 15 -8 26
-5 15 5 17 3 13 -10 -5 -13 -2 -16 17 -13 37 5 34 31 -7 53 -51 27 -71 29 -48
4z"/>
<path d="M11600 4155 c7 -8 20 -15 29 -15 14 0 14 -2 1 -10 -13 -8 -12 -10 4
-10 12 0 16 5 12 16 -3 9 -6 20 -6 25 0 5 -12 9 -26 9 -22 0 -25 -2 -14 -15z"/>
<path d="M11560 4130 c0 -5 9 -14 20 -20 19 -10 20 -10 8 9 -13 22 -28 28 -28
11z"/>
<path d="M11170 3560 c0 -5 5 -10 10 -10 6 0 10 5 10 10 0 6 -4 10 -10 10 -5
0 -10 -4 -10 -10z"/>
<path d="M11105 3550 c-3 -5 -2 -10 4 -10 5 0 13 5 16 10 3 6 2 10 -4 10 -5 0
-13 -4 -16 -10z"/>
<path d="M11343 3183 c9 -9 20 -13 24 -9 4 4 1 11 -7 16 -25 16 -35 11 -17 -7z"/>
<path d="M11252 3168 c2 -6 10 -14 16 -16 7 -2 10 2 6 12 -7 18 -28 22 -22 4z"/>
<path d="M11176 3065 c-9 -26 -7 -32 5 -12 6 10 9 21 6 23 -2 3 -7 -2 -11 -11z"/>
<path d="M17520 5670 c19 -13 30 -13 30 0 0 6 -10 10 -22 10 -19 0 -20 -2 -8
-10z"/>
<path d="M17536 5642 c-8 -13 11 -35 23 -28 16 10 14 36 -3 36 -8 0 -17 -4
-20 -8z"/>
<path d="M16271 4674 c0 -11 3 -14 6 -6 3 7 2 16 -1 19 -3 4 -6 -2 -5 -13z"/>
<path d="M12400 2370 c-13 -8 -12 -10 3 -10 9 0 17 5 17 10 0 12 -1 12 -20 0z"/>
<path d="M12493 2353 c-24 -27 -29 -43 -15 -43 11 0 37 30 45 53 9 24 -4 20
-30 -10z"/>
<path d="M13471 2344 c0 -11 3 -14 6 -6 3 7 2 16 -1 19 -3 4 -6 -2 -5 -13z"/>
<path d="M12481 2287 c-45 -23 -65 -47 -39 -47 7 0 19 9 26 20 7 11 20 20 30
20 10 0 27 7 38 15 31 23 -4 18 -55 -8z"/>
<path d="M12412 2288 c-7 -7 -12 -21 -12 -32 1 -20 1 -20 20 3 29 34 22 59 -8
29z"/>
<path d="M12150 2115 c0 -9 8 -19 18 -22 9 -4 19 -10 22 -14 3 -5 12 1 19 13
12 19 11 20 -13 14 -19 -5 -26 -3 -26 9 0 8 -4 15 -10 15 -5 0 -10 -7 -10 -15z"/>
<path d="M12348 2123 c7 -3 16 -2 19 1 4 3 -2 6 -13 5 -11 0 -14 -3 -6 -6z"/>
<path d="M12060 2086 c0 -9 5 -16 10 -16 6 0 10 4 10 9 0 6 -4 13 -10 16 -5 3
-10 -1 -10 -9z"/>
<path d="M13512 2048 c2 -6 10 -14 16 -16 7 -2 10 2 6 12 -7 18 -28 22 -22 4z"/>
<path d="M11987 2043 c-15 -14 -6 -44 16 -53 17 -6 26 -4 40 12 9 11 17 25 17
32 0 6 -7 3 -14 -6 -7 -10 -24 -18 -36 -18 -22 0 -23 1 -5 20 15 16 15 20 3
20 -8 0 -18 -3 -21 -7z"/>
<path d="M12287 2044 c-4 -4 -7 -17 -7 -28 1 -19 1 -20 11 -3 11 19 8 43 -4
31z"/>
<path d="M13550 2033 c0 -15 18 -35 23 -27 3 5 -1 15 -9 22 -8 7 -14 9 -14 5z"/>
<path d="M13563 1935 c-17 -19 -16 -30 0 -16 8 6 17 8 20 4 4 -3 7 1 7 10 0
21 -11 21 -27 2z"/>
<path d="M13627 1936 c-8 -19 31 -59 47 -48 5 3 0 13 -11 21 -11 9 -22 23 -25
31 -3 11 -6 10 -11 -4z"/>
<path d="M11895 1894 c-26 -11 -27 -13 -12 -20 12 -4 25 -1 35 9 22 22 13 27
-23 11z"/>
<path d="M12998 1873 c6 -2 18 -2 25 0 6 3 1 5 -13 5 -14 0 -19 -2 -12 -5z"/>
<path d="M18220 1860 c0 -5 5 -10 11 -10 5 0 7 5 4 10 -3 6 -8 10 -11 10 -2 0
-4 -4 -4 -10z"/>
<path d="M11977 1813 c-11 -10 -8 -33 4 -33 11 0 39 24 39 34 0 8 -35 7 -43
-1z"/>
<path d="M11675 1760 c-3 -5 -2 -10 4 -10 5 0 13 5 16 10 3 6 2 10 -4 10 -5 0
-13 -4 -16 -10z"/>
<path d="M17762 1728 c-17 -13 -30 -29 -27 -36 3 -8 5 -20 5 -28 0 -25 15 -15
43 31 38 65 34 71 -21 33z"/>
<path d="M11688 1613 c7 -3 16 -2 19 1 4 3 -2 6 -13 5 -11 0 -14 -3 -6 -6z"/>
<path d="M12727 1582 c-10 -10 -17 -24 -17 -31 0 -7 -10 -21 -22 -30 -12 -10
-18 -23 -14 -29 9 -15 66 -16 66 -2 0 6 -4 10 -10 10 -5 0 -10 7 -10 15 0 8 6
15 13 15 26 0 47 24 41 48 -8 27 -25 28 -47 4z"/>
<path d="M11550 1530 c-13 -8 -12 -10 3 -10 9 0 17 5 17 10 0 12 -1 12 -20 0z"/>
<path d="M11474 1519 c-8 -13 25 -24 37 -12 7 7 3 12 -10 16 -12 3 -24 1 -27
-4z"/>
<path d="M11460 1475 c0 -8 7 -15 15 -15 9 0 12 6 9 15 -4 8 -10 15 -15 15 -5
0 -9 -7 -9 -15z"/>
<path d="M11520 1479 c0 -5 5 -7 10 -4 6 3 10 8 10 11 0 2 -4 4 -10 4 -5 0
-10 -5 -10 -11z"/>
<path d="M12695 1380 c-4 -7 2 -22 14 -34 19 -18 23 -19 31 -6 6 10 5 16 -3
19 -7 2 -17 10 -24 18 -8 10 -13 11 -18 3z"/>
<path d="M16583 1275 c-17 -7 -23 -18 -23 -42 0 -42 12 -42 35 0 22 41 18 56
-12 42z"/>
</g>
</svg>
