<?xml version="1.0" standalone="no"?>
<!DOCTYPE svg PUBLIC "-//W3C//DTD SVG 20010904//EN"
 "http://www.w3.org/TR/2001/REC-SVG-20010904/DTD/svg10.dtd">
<svg version="1.0" xmlns="http://www.w3.org/2000/svg"
 width="1000.000000pt" height="1000.000000pt" viewBox="0 0 1000.000000 1000.000000"
 preserveAspectRatio="xMidYMid meet">
<metadata>
Created by potrace 1.14, written by Peter Selinger 2001-2017
</metadata>
<g transform="translate(0.000000,1000.000000) scale(0.100000,-0.100000)"
fill="#000000" stroke="none">
<path d="M3078 8190 c-35 -40 -145 -109 -175 -110 -7 0 -13 -5 -13 -11 0 -5
-5 -7 -10 -4 -6 3 -13 -1 -16 -9 -3 -9 -10 -13 -15 -10 -5 3 -9 0 -9 -5 0 -6
-7 -11 -17 -11 -9 0 -14 -3 -11 -6 4 -3 -11 -23 -33 -43 -21 -21 -36 -41 -32
-45 3 -3 2 -6 -4 -6 -10 0 -29 -64 -36 -120 -1 -14 -6 -31 -10 -37 -5 -7 -5
-13 0 -13 7 0 9 -62 2 -85 -2 -5 2 -19 8 -30 6 -11 9 -28 8 -37 -2 -10 1 -20
6 -24 5 -3 9 -14 9 -25 0 -10 5 -19 11 -19 5 0 8 -4 5 -9 -4 -5 -1 -22 5 -38
6 -15 11 -30 11 -33 0 -3 6 -23 13 -46 7 -23 9 -49 4 -62 -5 -13 -4 -22 1 -22
6 0 10 -11 10 -25 0 -22 18 -74 30 -85 5 -5 9 -26 12 -57 1 -7 4 -10 8 -8 4 2
13 -11 20 -30 8 -19 17 -35 21 -35 4 0 11 -9 14 -20 3 -11 12 -26 18 -32 22
-23 47 -67 47 -82 0 -8 -7 -21 -15 -30 -9 -8 -16 -19 -16 -23 -1 -4 -5 -7 -10
-6 -5 2 -8 0 -8 -5 4 -21 -2 -32 -13 -26 -7 4 -10 4 -6 -1 9 -10 -10 -47 -21
-40 -5 2 -8 -3 -7 -13 0 -9 -4 -16 -10 -15 -7 1 -11 -5 -10 -15 0 -9 -5 -16
-11 -15 -7 2 -12 0 -11 -5 3 -15 -15 -42 -25 -35 -6 3 -7 1 -3 -5 3 -6 -1 -17
-9 -24 -9 -7 -28 -25 -42 -40 -15 -16 -32 -28 -38 -28 -7 0 -18 -7 -25 -15 -7
-9 -15 -13 -17 -11 -8 7 -95 -82 -90 -91 6 -10 -18 -34 -27 -27 -3 2 -4 1 -1
-2 4 -6 -46 -84 -72 -112 -7 -7 -13 -18 -13 -23 0 -5 -13 -28 -30 -51 -17 -22
-30 -37 -30 -32 0 5 -9 -7 -19 -26 -11 -19 -24 -34 -29 -33 -6 1 -7 -7 -4 -19
3 -14 1 -19 -6 -14 -6 3 -13 -3 -17 -14 -3 -11 -11 -20 -16 -20 -6 0 -7 -4 -4
-10 3 -5 -4 -20 -17 -33 -13 -13 -25 -32 -27 -43 -8 -37 -7 -269 1 -280 5 -7
2 -14 -7 -18 -9 -3 -13 -2 -10 4 3 6 -3 10 -15 10 -12 0 -18 4 -15 10 3 5 0 7
-9 4 -9 -3 -19 3 -26 16 -7 13 -17 19 -26 16 -8 -3 -12 -2 -9 4 3 5 -3 8 -14
7 -11 0 -17 -5 -14 -11 3 -5 -2 -15 -12 -23 -16 -11 -17 -13 -2 -13 11 0 15
-7 12 -20 -2 -11 0 -18 6 -15 5 4 9 -1 9 -10 0 -9 5 -13 10 -10 6 3 10 1 10
-5 0 -6 7 -18 15 -27 8 -8 13 -19 10 -24 -4 -5 0 -6 8 -4 7 3 21 -3 31 -14 10
-11 23 -18 27 -15 5 3 9 0 9 -7 0 -7 3 -10 6 -6 4 3 13 -1 21 -9 8 -8 19 -12
24 -9 5 4 9 1 9 -5 0 -6 4 -9 9 -5 5 3 12 1 16 -4 3 -6 12 -8 20 -4 8 3 15 0
15 -7 0 -6 4 -9 8 -6 5 3 9 -1 9 -9 0 -8 -4 -12 -9 -9 -4 3 -8 -1 -8 -10 0 -8
-6 -17 -12 -19 -10 -4 -9 -8 2 -16 13 -9 12 -11 -5 -12 -11 -1 -22 -1 -25 -1
-3 0 -5 -28 -5 -63 0 -35 4 -63 10 -62 5 1 9 -2 10 -8 0 -5 4 -16 9 -24 6 -10
5 -12 -2 -7 -6 4 -20 -2 -31 -13 -11 -11 -21 -17 -24 -15 -2 2 -22 -13 -45
-34 -23 -22 -39 -42 -35 -45 3 -4 -1 -7 -10 -7 -10 0 -17 -7 -17 -15 0 -7 -8
-19 -17 -24 -10 -6 -14 -11 -9 -11 5 0 1 -10 -10 -22 -19 -21 -31 -46 -66
-133 -6 -16 -13 -37 -14 -45 -5 -30 -12 -56 -25 -85 -14 -34 -15 -41 -17 -73
-1 -13 -6 -21 -10 -18 -4 2 -8 -3 -9 -12 -3 -45 -8 -62 -17 -62 -5 0 -7 -3 -4
-6 4 -3 2 -20 -4 -37 -5 -18 -11 -45 -13 -62 -1 -16 -8 -31 -14 -33 -6 -2 -9
-8 -6 -12 19 -31 -90 -250 -124 -250 -6 0 -11 -5 -11 -11 0 -6 -9 -9 -20 -6
-11 3 -18 2 -15 -3 5 -8 -42 -44 -58 -45 -4 0 -11 -5 -15 -11 -4 -6 -15 -13
-25 -17 -11 -4 -15 -12 -11 -19 5 -8 2 -9 -10 -5 -14 5 -17 3 -12 -8 3 -8 1
-15 -5 -15 -6 0 -7 -4 -4 -10 3 -5 1 -10 -4 -10 -6 0 -11 -7 -11 -15 0 -8 -4
-15 -8 -15 -10 0 -7 -73 3 -90 5 -8 4 -11 -3 -7 -7 5 -7 -3 1 -28 6 -19 14
-35 19 -35 5 0 6 -5 3 -10 -3 -6 1 -13 9 -16 9 -3 14 -9 11 -13 -2 -5 16 -23
41 -41 41 -31 44 -37 43 -75 -1 -22 -6 -45 -11 -52 -5 -6 -5 -14 1 -17 5 -4 6
-18 2 -34 -5 -15 -5 -36 -1 -47 4 -11 6 -23 3 -27 -2 -4 1 -17 7 -28 8 -15 8
-20 -1 -20 -7 0 -4 -8 7 -21 16 -17 16 -22 4 -29 -12 -8 -12 -10 3 -10 10 0
16 -4 12 -9 -3 -5 -1 -12 5 -16 5 -3 10 -15 10 -26 0 -10 4 -19 9 -19 5 0 12
-9 16 -19 3 -11 19 -34 35 -52 17 -17 27 -35 24 -40 -3 -5 1 -6 9 -3 18 6 26
-5 29 -39 1 -14 5 -24 9 -21 7 4 25 -37 20 -45 -2 -2 4 -8 13 -13 9 -5 16 -13
16 -18 0 -20 117 -147 131 -143 5 2 9 -2 9 -7 0 -6 7 -10 16 -10 11 0 14 -5
10 -16 -5 -13 -4 -14 7 -6 20 17 54 -11 74 -59 8 -21 19 -39 23 -39 5 0 19
-17 31 -37 13 -21 31 -44 41 -51 10 -7 18 -20 18 -29 0 -9 3 -14 6 -10 3 3 15
-3 27 -13 15 -15 24 -17 34 -9 7 6 13 9 13 5 0 -3 9 3 20 14 11 11 20 27 20
35 0 8 4 15 9 15 5 0 8 8 6 18 -1 9 0 21 3 26 7 13 6 85 -2 93 -3 3 2 12 12
20 9 8 12 12 6 9 -7 -3 -14 3 -17 14 -3 11 -1 20 4 20 6 0 5 8 -1 20 -11 21
-6 24 32 21 9 -1 19 3 23 8 4 7 12 7 25 -1 13 -9 16 -16 9 -24 -7 -8 -6 -15 2
-20 8 -4 9 -3 5 4 -4 7 -1 12 6 12 21 0 48 -56 34 -70 -8 -8 -7 -10 5 -5 14 5
64 -27 54 -36 -2 -3 5 -11 17 -18 11 -7 17 -8 13 -2 -3 6 -1 11 4 11 6 0 11
-5 11 -11 0 -8 4 -8 15 1 8 6 19 9 25 5 6 -4 10 -3 9 2 -1 4 4 22 11 38 7 17
12 34 11 39 -1 5 5 16 14 26 14 15 14 18 0 30 -14 12 -11 35 4 26 4 -3 8 1 8
9 0 12 -3 12 -15 2 -13 -10 -14 -7 -8 25 4 21 2 39 -3 43 -11 6 6 55 18 53 3
0 8 0 11 2 39 14 54 8 106 -47 33 -34 52 -63 49 -71 -5 -13 -3 -13 12 -1 9 8
14 9 10 2 -4 -6 -3 -15 3 -18 8 -5 7 -12 -2 -23 -10 -14 -10 -15 2 -4 16 13
34 16 26 4 -3 -5 4 -15 15 -22 10 -8 19 -21 19 -29 0 -8 3 -12 6 -8 8 8 95
-76 97 -94 2 -8 7 -20 11 -28 7 -10 6 -12 -4 -6 -10 6 -11 4 -4 -6 12 -19 11
-62 -1 -71 -6 -5 -5 -8 2 -8 7 0 10 -7 7 -15 -4 -8 -11 -12 -17 -8 -6 4 -7 1
-2 -8 5 -7 8 -39 8 -71 0 -32 3 -61 8 -64 5 -3 6 -11 2 -17 -4 -7 -9 -21 -10
-31 -2 -11 -8 -25 -13 -31 -5 -7 -7 -14 -4 -18 6 -6 -32 -30 -55 -33 -8 -2
-26 5 -40 14 -14 10 -38 24 -53 31 -15 8 -25 17 -23 21 2 4 -2 7 -10 7 -8 0
-12 -5 -8 -10 3 -5 -3 -4 -14 2 -11 5 -31 12 -44 15 -13 3 -41 10 -61 16 -87
23 -107 27 -114 21 -4 -3 -4 0 1 8 5 9 3 12 -6 9 -8 -3 -26 1 -41 9 -22 11
-28 11 -28 1 0 -9 -3 -8 -10 2 -5 8 -10 12 -10 8 0 -4 -11 -3 -24 2 -17 6 -26
5 -30 -3 -3 -9 -5 -9 -5 0 -1 7 -8 10 -18 6 -11 -4 -14 -3 -9 5 5 8 2 10 -8 6
-9 -3 -13 -11 -9 -18 5 -7 2 -7 -8 1 -13 11 -64 15 -54 4 3 -2 -3 -10 -13 -18
-9 -8 -11 -11 -3 -7 10 5 13 3 8 -9 -3 -8 1 -21 9 -27 8 -7 14 -19 14 -26 0
-12 12 -18 31 -16 4 1 5 -8 2 -18 -4 -14 0 -20 11 -20 9 0 16 -7 16 -16 0 -8
5 -12 10 -9 6 3 10 -3 10 -14 0 -11 9 -22 20 -26 11 -4 18 -10 15 -15 -3 -5 2
-15 10 -23 8 -9 15 -20 15 -26 0 -6 9 -15 20 -21 11 -6 20 -17 20 -25 0 -7 9
-17 21 -20 11 -4 18 -9 15 -13 -7 -7 54 -62 69 -62 13 0 37 -40 35 -56 -3 -16
12 -54 22 -54 5 0 7 -4 3 -9 -3 -5 4 -12 15 -16 11 -3 20 -13 20 -21 0 -8 4
-13 9 -10 4 3 18 -6 31 -19 13 -13 26 -22 30 -20 9 5 61 -51 53 -58 -3 -3 4
-12 16 -19 12 -7 21 -16 21 -20 0 -5 8 -17 18 -27 32 -37 42 -50 42 -61 0 -5
5 -10 10 -10 6 0 10 -9 10 -20 0 -11 5 -20 10 -20 6 0 10 -5 10 -10 0 -13 8
-22 82 -100 31 -33 61 -60 67 -60 6 0 11 -5 11 -11 0 -5 4 -7 10 -4 5 3 10 1
10 -4 0 -6 3 -10 8 -9 16 3 61 -15 56 -23 -3 -5 0 -9 5 -9 6 0 11 6 11 13 0 8
2 9 8 1 4 -6 21 -14 37 -18 17 -3 41 -9 55 -12 14 -3 34 -7 45 -9 11 -2 35 -8
54 -14 18 -6 36 -10 40 -9 3 0 8 0 11 -2 3 -1 22 -4 43 -6 28 -3 37 -2 31 7
-4 8 -3 9 5 5 18 -12 61 -14 61 -4 0 5 9 4 19 -2 12 -6 22 -6 26 -1 3 5 17 6
33 2 15 -5 37 -4 50 0 15 6 22 5 22 -4 0 -9 2 -9 8 0 4 7 17 14 27 16 11 1 26
6 33 10 6 5 12 6 12 2 0 -3 10 0 23 7 12 7 25 12 29 13 4 0 13 6 19 13 7 6 19
12 26 12 13 0 45 24 89 66 13 12 25 19 28 17 3 -3 8 2 12 11 3 9 10 13 15 10
5 -3 9 2 9 10 0 9 3 15 8 13 4 -1 21 10 37 25 16 15 33 24 38 21 6 -3 7 -1 3
5 -3 6 3 13 14 17 11 4 18 10 15 15 -3 5 4 11 15 15 11 4 18 11 15 16 -6 8 9
13 28 10 5 -1 6 3 3 8 -6 9 41 61 55 61 5 0 8 4 6 9 -1 5 9 21 23 37 14 16 31
41 39 56 8 15 18 25 23 22 5 -3 7 -2 6 3 -3 10 47 85 53 79 2 -2 15 11 29 30
14 18 33 36 43 40 9 3 15 9 12 14 -3 4 2 11 11 14 8 3 12 10 9 16 -3 5 1 10 9
10 9 0 16 4 16 10 0 5 12 22 28 38 15 16 45 50 66 76 29 34 42 43 51 36 10 -8
13 -6 11 5 0 9 19 27 49 43 28 15 52 30 55 33 6 8 53 24 62 21 4 -1 5 5 2 13
-4 10 0 15 13 15 11 0 31 10 45 23 13 12 33 24 44 25 10 2 28 11 38 20 12 10
16 11 11 3 -5 -9 1 -7 19 4 14 10 26 15 26 12 0 -3 16 1 35 9 19 8 35 12 35 9
0 -3 8 -1 18 4 9 5 33 12 52 16 19 3 46 8 60 11 14 3 39 6 55 7 17 1 35 5 41
9 6 4 14 5 17 1 4 -3 40 -7 81 -9 42 -1 80 -5 86 -9 6 -3 23 -9 38 -11 15 -3
31 -9 36 -15 6 -5 18 -9 29 -9 10 0 15 -4 12 -10 -3 -6 1 -7 9 -4 9 3 16 2 16
-3 0 -5 7 -10 15 -11 8 -1 22 -3 30 -4 8 -1 15 -5 15 -10 0 -4 3 -7 8 -6 4 1
23 -6 42 -15 19 -8 50 -22 68 -29 17 -7 32 -15 32 -18 0 -3 14 -7 32 -8 18 -2
40 -10 50 -19 10 -9 18 -13 18 -9 0 4 11 -5 25 -19 14 -14 30 -25 36 -25 12 0
107 -91 107 -103 0 -17 25 -67 33 -67 5 0 9 -7 9 -15 0 -9 7 -18 16 -22 9 -3
13 -12 9 -21 -3 -9 -3 -13 1 -9 7 7 42 -34 35 -42 -1 -2 1 -7 6 -10 15 -11 43
-68 36 -75 -3 -3 -2 -6 4 -6 6 0 13 -10 16 -22 3 -13 14 -46 25 -75 11 -28 17
-54 14 -57 -3 -3 0 -6 6 -6 7 0 12 -7 12 -15 0 -7 8 -19 18 -24 11 -7 12 -11
4 -11 -10 0 -10 -4 2 -16 9 -8 16 -20 16 -25 0 -5 9 -9 21 -9 11 0 17 5 14 10
-3 6 -3 10 2 10 10 0 10 71 0 87 -4 6 2 22 14 34 11 13 18 18 14 12 -3 -7 -1
-13 4 -13 6 0 11 -7 11 -16 0 -8 5 -12 10 -9 9 6 14 -8 11 -27 0 -5 3 -8 9 -8
5 0 10 5 10 11 0 5 5 7 10 4 6 -3 10 -1 10 5 0 6 6 8 13 4 10 -6 10 -4 0 7
-15 16 -17 33 -3 24 9 -5 16 68 11 99 -1 5 4 13 11 17 7 5 8 9 3 9 -6 0 -11 9
-12 20 -1 11 3 20 10 20 6 0 2 7 -9 16 -10 8 -13 13 -6 9 9 -5 11 3 8 29 -2
20 0 38 5 42 5 3 7 10 3 15 -3 5 -11 6 -17 2 -9 -5 -9 -3 -1 8 6 8 10 26 9 42
-1 15 3 27 9 27 7 0 7 3 1 8 -15 11 -17 32 -5 47 7 8 7 16 2 19 -5 3 -9 30 -9
60 0 30 -3 59 -7 64 -3 6 -2 13 3 16 5 3 5 21 1 41 -7 32 -6 35 16 35 15 0 24
6 24 16 0 8 5 12 10 9 6 -4 10 5 10 19 0 14 5 26 11 26 5 0 8 4 5 8 -6 10 41
56 67 65 9 4 17 2 17 -4 0 -6 6 -9 14 -6 10 4 14 0 11 -14 -2 -10 -1 -19 3
-19 9 0 7 -152 -2 -205 -9 -48 -14 -70 -16 -70 -3 0 -11 -51 -13 -90 -1 -22
-5 -45 -9 -50 -4 -7 3 -11 18 -11 14 0 26 7 30 18 3 10 10 18 15 18 6 0 7 5 4
10 -3 6 -1 10 5 10 6 0 9 4 5 9 -3 6 4 26 15 45 11 20 17 36 14 36 -4 0 -1 7
6 15 7 8 9 15 4 15 -4 0 -3 5 3 11 6 6 9 18 6 25 -3 8 -1 14 4 14 5 0 8 16 8
35 -1 20 2 38 7 41 5 3 6 9 3 14 -3 5 -1 11 4 14 5 4 8 18 5 31 -2 14 0 25 4
25 5 0 9 10 8 23 -1 12 4 39 11 60 8 24 9 35 2 31 -8 -4 -8 -1 0 13 6 11 7 23
4 27 -3 3 -1 6 5 6 6 0 9 9 7 20 -2 11 1 22 6 25 5 4 7 10 4 14 -2 5 6 9 18 9
25 0 36 -19 58 -98 7 -25 15 -47 19 -50 5 -5 7 -13 15 -50 2 -8 7 -24 11 -34
6 -15 4 -17 -6 -11 -9 5 -11 4 -6 -3 4 -7 15 -12 24 -12 14 0 15 -2 3 -9 -11
-7 -12 -13 -3 -24 6 -7 13 -22 15 -33 9 -44 20 -80 31 -93 9 -12 8 -13 -2 -7
-12 7 -12 4 -2 -15 17 -32 15 -30 34 -23 9 3 13 10 10 15 -3 5 -1 9 4 9 6 0
13 17 17 38 4 20 12 43 18 51 10 12 9 13 -2 6 -11 -6 -12 -5 -5 6 5 8 9 35 9
61 1 26 4 50 8 54 3 4 2 15 -4 25 -5 11 -6 19 -2 19 5 0 8 12 7 28 -1 15 1 31
4 37 3 5 7 16 8 25 1 8 5 29 8 45 4 17 10 44 13 60 3 17 9 38 15 48 5 10 7 21
4 24 -3 3 2 12 10 20 8 8 12 19 9 24 -9 14 0 11 21 -9 10 -9 20 -24 22 -32 2
-8 8 -18 14 -21 7 -4 6 -9 -1 -14 -8 -4 -9 -11 -3 -18 5 -7 10 -25 11 -42 3
-62 6 -80 16 -88 6 -4 4 -11 -5 -17 -12 -7 -12 -10 -1 -10 7 0 11 -6 7 -15 -3
-8 -1 -15 5 -15 6 0 9 -7 5 -15 -7 -18 5 -20 23 -2 11 10 12 9 6 -3 -8 -13 -7
-13 9 -1 9 8 15 20 12 27 -3 7 0 14 6 16 5 2 12 19 13 38 2 19 4 35 5 35 1 0
3 20 5 45 11 137 16 184 22 194 4 6 6 19 4 30 -1 10 1 16 6 13 5 -3 8 7 7 21
0 15 5 44 12 66 8 21 11 42 8 47 -3 5 0 9 5 9 6 0 11 7 11 15 0 7 8 19 18 24
9 6 13 11 9 11 -8 0 4 18 55 78 l27 32 43 -22 c24 -13 59 -39 79 -59 40 -41
83 -61 73 -35 -4 10 -1 16 7 16 11 1 11 3 -1 13 -8 7 -16 21 -17 32 -5 48 -16
85 -24 85 -5 0 -9 7 -9 15 0 8 -4 15 -10 15 -5 0 -10 5 -10 10 0 6 -11 28 -25
50 -14 22 -22 40 -19 40 4 0 2 6 -4 13 -12 15 -11 116 2 136 6 10 6 12 -2 7
-6 -4 -2 16 10 44 11 27 25 50 29 50 5 0 9 7 9 16 0 8 5 12 11 9 6 -4 8 -13 5
-21 -3 -8 0 -13 6 -11 10 2 18 -18 21 -58 1 -11 8 -26 15 -34 7 -7 11 -20 8
-28 -3 -8 -2 -12 3 -9 4 3 14 -14 21 -37 8 -23 17 -46 21 -52 4 -5 8 -14 8
-20 3 -23 27 -65 37 -65 7 0 19 12 29 26 9 15 12 23 6 20 -13 -9 -14 -4 -1 28
6 17 6 27 -1 32 -6 4 -6 11 2 20 8 10 8 14 0 14 -13 0 -10 22 4 32 6 5 6 8 -1
8 -6 0 -11 15 -12 33 -1 39 -8 102 -17 140 -4 20 -2 26 5 22 8 -5 9 -2 1 11
-8 16 -41 141 -46 179 -1 6 -3 12 -5 15 -1 3 -3 16 -4 30 0 14 -4 30 -7 35 -3
6 -5 27 -5 48 1 20 -3 37 -7 37 -5 0 -5 5 -1 11 3 6 7 38 7 70 0 33 4 59 9 59
5 0 7 4 4 8 -6 9 28 65 38 62 15 -4 66 20 66 30 0 6 4 9 9 6 4 -3 19 6 31 19
13 14 29 25 36 25 7 0 16 9 19 20 4 11 10 18 15 15 5 -3 11 4 15 15 3 11 12
20 20 20 18 0 24 44 8 59 -8 7 -31 14 -51 15 -20 1 -50 6 -67 11 -32 9 -107
55 -90 55 6 0 3 5 -6 10 -9 5 -19 20 -23 33 -3 13 -12 40 -21 60 -8 20 -15 39
-16 42 0 3 -6 22 -13 42 -7 21 -12 48 -11 60 1 13 -3 23 -9 23 -6 0 -5 4 3 9
9 6 10 11 3 15 -13 8 -5 36 10 36 5 0 6 -6 2 -12 -6 -10 -4 -10 7 0 7 6 21 12
30 12 10 0 20 -6 22 -12 3 -8 6 -6 6 4 1 11 6 15 15 12 8 -3 16 -1 20 4 8 14
-5 52 -19 52 -7 0 -16 6 -18 13 -4 9 -6 9 -6 0 -2 -27 -96 69 -96 98 0 5 -6
13 -13 18 -7 4 -14 17 -15 29 0 11 -5 18 -9 16 -4 -3 -8 1 -9 8 -2 32 -9 53
-19 56 -5 2 -8 8 -4 13 3 5 2 15 -3 22 -19 31 -25 184 -7 218 7 15 10 29 7 33
-4 3 2 7 13 8 10 0 26 2 34 2 8 1 22 -6 31 -16 9 -10 20 -18 23 -18 4 0 14 -7
22 -15 12 -12 19 -12 34 -2 32 19 30 31 -10 97 -22 35 -37 67 -34 72 3 4 2 8
-3 8 -4 0 -19 18 -33 40 -13 22 -30 40 -36 40 -7 0 -16 9 -19 20 -3 11 -13 20
-21 20 -8 0 -14 9 -14 21 0 11 -4 18 -9 15 -5 -3 -25 13 -44 35 -23 26 -41 38
-49 33 -7 -4 -10 -4 -6 1 8 8 -4 22 -39 46 l-22 15 26 30 c14 16 30 28 35 26
6 -2 8 4 5 13 -4 8 -1 15 6 15 13 0 53 59 49 72 -1 4 7 10 18 13 11 4 18 11
15 16 -4 5 -1 9 6 9 7 0 9 3 6 7 -4 3 -3 11 2 17 21 28 19 54 -7 65 -13 7 -27
9 -30 6 -3 -3 -2 -5 2 -5 4 0 1 -7 -8 -15 -8 -8 -18 -15 -23 -15 -4 0 -14 -9
-21 -20 -7 -11 -19 -20 -27 -20 -8 0 -15 -4 -15 -9 0 -11 -54 -25 -85 -24 -19
2 -36 5 -100 20 -53 12 -78 14 -183 14 -57 0 -101 3 -98 7 2 4 -15 8 -37 9
-23 2 -43 7 -45 13 -2 6 -8 8 -12 5 -5 -3 -20 6 -34 20 -14 14 -30 25 -36 25
-5 0 -10 5 -10 10 0 6 -7 10 -15 10 -8 0 -15 7 -15 16 0 11 -5 14 -17 10 -10
-4 -14 -4 -10 0 4 4 -2 14 -13 21 -11 8 -17 19 -14 25 4 7 2 8 -5 4 -6 -4 -14
0 -17 8 -3 9 -10 16 -15 16 -5 0 -22 14 -37 30 -16 17 -34 30 -41 30 -6 0 -11
5 -11 10 0 6 -7 10 -16 10 -8 0 -12 5 -9 10 3 6 -1 10 -9 10 -23 0 -120 102
-109 114 4 3 2 6 -3 6 -5 0 -10 9 -11 20 -1 11 3 20 8 20 6 0 7 4 4 10 -3 5
-1 18 4 28 6 11 13 34 16 53 3 18 10 36 14 39 5 3 7 13 5 23 -1 9 1 17 6 17 7
0 25 67 22 83 -1 4 2 7 6 7 5 0 9 6 10 13 7 86 9 105 15 114 4 6 1 14 -5 16
-10 4 -10 6 0 6 10 1 10 6 2 21 -10 18 -7 24 11 22 3 -1 5 9 4 21 -1 12 0 27
4 32 10 17 12 37 15 128 1 48 -1 87 -4 87 -4 0 -6 11 -5 25 2 14 -1 25 -6 25
-5 0 -9 8 -9 19 0 10 -7 34 -15 54 -8 19 -11 38 -7 42 4 5 1 5 -5 1 -7 -4 -13
-3 -13 3 0 5 -5 22 -12 38 -6 15 -11 31 -10 36 1 4 -3 7 -8 7 -6 0 -10 6 -10
13 0 7 -9 19 -20 27 -11 8 -20 18 -20 22 0 4 -8 17 -17 27 -33 37 -48 56 -43
56 2 0 -9 15 -25 34 -17 18 -29 37 -28 42 2 5 -3 8 -10 6 -6 -1 -11 4 -10 11
2 6 -3 12 -11 12 -8 0 -18 9 -21 21 -4 13 -12 18 -21 15 -8 -3 -13 -2 -10 3 6
9 -31 45 -76 74 -16 9 -28 14 -28 10 0 -5 -4 -3 -8 2 -4 6 -31 22 -59 35 -29
14 -53 27 -53 30 0 3 -14 7 -31 8 -17 1 -40 7 -50 13 -11 5 -19 6 -19 2 0 -4
-13 -8 -30 -8 -16 0 -30 4 -30 9 0 5 -7 3 -15 -4 -8 -7 -15 -9 -15 -4 0 5 -4
5 -8 -1 -4 -5 -23 -18 -42 -28 -77 -39 -95 -50 -98 -59 -2 -4 -10 -8 -17 -8
-8 0 -27 -12 -42 -27 -16 -16 -32 -29 -36 -31 -4 -1 -14 -5 -22 -8 -8 -3 -12
-10 -9 -15 3 -5 1 -9 -4 -9 -5 0 -21 -11 -36 -25 -14 -13 -26 -21 -26 -18 0 3
-8 -3 -17 -13 -25 -26 -38 -29 -108 -25 -19 1 -67 -5 -72 -9 -2 -2 -12 -4 -23
-5 -11 -1 -21 -3 -22 -5 -21 -16 -177 -13 -313 6 -22 3 -54 6 -71 8 -17 1 -36
6 -42 10 -7 4 -12 3 -12 -2 0 -6 -13 -9 -30 -8 -16 1 -30 -2 -30 -8 0 -5 -3
-6 -7 -3 -3 4 -12 2 -20 -4 -7 -6 -13 -8 -13 -4 0 4 -8 1 -17 -6 -10 -8 -14
-9 -10 -2 9 15 -50 -14 -73 -36 -41 -38 -61 -50 -92 -53 -18 -2 -35 -6 -38 -9
-3 -4 -23 -10 -45 -14 -22 -4 -45 -8 -51 -9 -7 -1 -18 -7 -25 -13 -8 -6 -41
-13 -73 -17 -32 -3 -64 -10 -71 -16 -6 -5 -14 -8 -17 -5 -3 3 -22 -2 -43 -10
-20 -9 -44 -14 -52 -11 -8 3 -12 2 -9 -3 9 -14 -52 -27 -159 -34 -22 -2 -46
-6 -53 -10 -7 -5 -12 -3 -12 4 0 8 -4 8 -13 1 -6 -6 -28 -13 -47 -15 -19 -3
-35 -6 -35 -7 0 -1 -11 -3 -24 -6 -13 -2 -30 -8 -38 -13 -17 -9 -83 7 -83 21
0 4 -6 8 -12 8 -7 1 -31 19 -53 40 -22 22 -46 40 -52 40 -7 0 -13 3 -13 8 0 4
-18 18 -40 32 -22 14 -40 28 -40 32 0 5 -5 8 -11 8 -15 0 -79 67 -71 74 3 4
-2 6 -11 6 -10 0 -17 8 -17 19 0 11 -6 26 -13 33 -7 7 -20 28 -28 46 -7 17
-17 32 -21 32 -5 0 -8 7 -8 15 0 8 -4 15 -10 15 -5 0 -10 6 -10 13 0 18 -58
79 -91 96 -15 7 -42 11 -62 8 -19 -2 -41 0 -48 7 -9 8 -10 8 -6 0 5 -8 -2 -11
-18 -10 -16 0 -23 6 -20 14 2 6 0 12 -4 12 -5 0 -11 -5 -13 -10 -2 -7 -24 -4
-58 7 -70 22 -154 23 -172 3z m-668 -2074 c0 -2 -8 -10 -17 -17 -16 -13 -17
-12 -4 4 13 16 21 21 21 13z m-45 -76 c3 -5 1 -10 -4 -10 -6 0 -11 5 -11 10 0
6 2 10 4 10 3 0 8 -4 11 -10z m840 -2179 c3 -5 2 -12 -3 -15 -5 -3 -9 1 -9 9
0 17 3 19 12 6z m-1358 -96 c0 -8 -4 -12 -9 -9 -5 3 -6 10 -3 15 9 13 12 11
12 -6z m58 -25 c3 -5 1 -10 -4 -10 -6 0 -11 5 -11 10 0 6 2 10 4 10 3 0 8 -4
11 -10z m-18 -57 c-4 -3 -1 -13 6 -22 11 -14 10 -14 -5 -2 -21 15 -23 31 -6
31 6 0 8 -3 5 -7z m996 -38 c-3 -9 -8 -14 -10 -11 -3 3 -2 9 2 15 9 16 15 13
8 -4z m531 -52 c4 -10 4 -14 0 -10 -4 4 -13 2 -20 -4 -9 -8 -11 -5 -7 10 7 25
19 27 27 4z m-38 -11 c-2 -4 3 -16 11 -27 13 -16 15 -17 10 -2 -4 9 -2 17 4
17 14 0 4 -86 -12 -108 -8 -9 -21 -23 -29 -30 -8 -8 -9 -11 -2 -7 20 10 14 -9
-8 -23 -11 -7 -20 -19 -20 -27 0 -8 -9 -19 -20 -25 -11 -6 -18 -15 -15 -21 4
-5 -2 -9 -12 -10 -11 0 -13 -3 -5 -6 6 -2 10 -9 6 -14 -10 -17 -74 42 -74 68
0 13 -4 22 -9 19 -4 -3 -13 6 -19 19 -8 17 -8 25 -1 25 6 0 7 5 3 12 -4 6 -3
8 4 4 6 -3 9 -15 7 -26 -2 -11 0 -20 5 -20 13 0 18 23 9 42 -14 27 9 33 54 13
10 -4 21 -5 24 -1 4 3 -2 6 -12 6 -17 0 -17 1 -1 19 14 16 15 19 3 17 -8 -1
-22 -8 -30 -14 -9 -8 -18 -9 -21 -3 -11 17 20 30 77 33 15 0 27 7 27 13 0 7 7
19 16 26 15 12 16 11 10 -11 -6 -21 -5 -22 4 -7 16 25 2 42 -19 23 -10 -9 -21
-13 -26 -9 -4 5 -6 1 -3 -8 4 -9 1 -16 -8 -16 -18 0 -18 11 1 27 8 7 15 9 15
6 0 -4 10 2 22 14 21 19 44 28 34 12z m-1420 -65 c4 -3 -4 -4 -16 -2 -30 6
-40 16 -12 12 12 -2 24 -6 28 -10z m55 -14 c13 -16 12 -17 -3 -4 -10 7 -18 15
-18 17 0 8 8 3 21 -13z m-84 -18 c0 -8 -4 -12 -9 -9 -5 3 -6 10 -3 15 9 13 12
11 12 -6z m40 -30 c0 -8 -4 -12 -9 -9 -5 3 -6 10 -3 15 9 13 12 11 12 -6z
m437 -21 c3 -8 2 -12 -4 -9 -6 3 -10 10 -10 16 0 14 7 11 14 -7z m521 -23 c3
-5 2 -12 -3 -15 -5 -3 -9 1 -9 9 0 17 3 19 12 6z m4439 -137 c3 -8 2 -12 -4
-9 -6 3 -10 10 -10 16 0 14 7 11 14 -7z m-4569 -203 c3 -5 1 -12 -5 -16 -5 -3
-10 1 -10 9 0 18 6 21 15 7z m4376 -154 c-1 -12 -15 -9 -19 4 -3 6 1 10 8 8 6
-3 11 -8 11 -12z m-481 -141 c0 -2 -8 -10 -17 -17 -16 -13 -17 -12 -4 4 13 16
21 21 21 13z m-2420 -616 c0 -5 -2 -10 -4 -10 -3 0 -8 5 -11 10 -3 6 -1 10 4
10 6 0 11 -4 11 -10z m2420 -155 c0 -1 -10 -10 -22 -21 -14 -12 -18 -13 -10
-3 6 9 10 18 7 21 -3 2 2 5 10 5 8 0 15 -1 15 -2z m-3444 -47 c3 -4 -1 -5 -10
-4 -8 1 -18 5 -22 8 -3 4 1 5 10 4 8 -1 18 -5 22 -8z m-16 -38 c0 -5 -5 -10
-11 -10 -5 0 -7 5 -4 10 3 6 8 10 11 10 2 0 4 -4 4 -10z m-20 -56 c0 -8 -19
-13 -24 -6 -3 5 1 9 9 9 8 0 15 -2 15 -3z m77 -99 c0 -8 -4 -15 -9 -15 -10 0
-11 14 -1 23 9 10 10 9 10 -8z m194 -98 c-10 -9 -11 -8 -5 6 3 10 9 15 12 12
3 -3 0 -11 -7 -18z m60 0 c-10 -9 -11 -8 -5 6 3 10 9 15 12 12 3 -3 0 -11 -7
-18z"/>
<path d="M3370 3520 c0 -5 5 -10 10 -10 6 0 10 5 10 10 0 6 -4 10 -10 10 -5 0
-10 -4 -10 -10z"/>
<path d="M3337 3503 c-9 -8 12 -33 27 -33 6 0 3 5 -7 11 -9 6 -15 14 -12 20 7
10 2 12 -8 2z"/>
<path d="M3296 3483 c-6 -14 -5 -15 5 -6 7 7 10 15 7 18 -3 3 -9 -2 -12 -12z"/>
<path d="M3311 3467 c-8 -10 -7 -14 2 -14 8 0 14 6 14 14 0 7 -1 13 -2 13 -2
0 -8 -6 -14 -13z"/>
<path d="M3219 3448 c15 -21 31 -23 31 -6 0 6 -3 8 -7 5 -3 -4 -13 -1 -22 6
-14 11 -14 10 -2 -5z"/>
<path d="M3255 3420 c-2 -3 5 -6 15 -7 11 -1 22 2 24 5 3 4 -4 8 -15 8 -11 0
-22 -3 -24 -6z"/>
<path d="M3315 3422 c3 -3 -1 -12 -7 -21 -8 -10 -4 -9 10 3 26 23 26 23 7 23
-8 0 -13 -3 -10 -5z"/>
<path d="M3226 3405 c-9 -26 -7 -32 5 -12 6 10 9 21 6 23 -2 3 -7 -2 -11 -11z"/>
<path d="M3261 3368 c9 -7 14 -20 11 -28 -3 -8 -3 -13 -1 -10 34 42 41 53 30
43 -10 -9 -20 -9 -35 -2 -18 9 -19 8 -5 -3z"/>
<path d="M2810 3211 c-7 -15 -7 -19 5 -17 8 1 18 6 22 11 5 4 2 5 -6 0 -11 -6
-13 -4 -8 8 9 23 0 21 -13 -2z"/>
<path d="M2804 3158 c-12 -14 -13 -18 -3 -10 9 6 18 10 21 7 2 -3 5 2 5 10 0
19 0 19 -23 -7z"/>
<path d="M2910 3136 c7 -7 13 -7 20 0 6 6 3 10 -10 10 -13 0 -16 -4 -10 -10z"/>
<path d="M2879 3093 c-12 -16 -12 -17 2 -6 9 7 20 9 24 5 5 -4 5 -1 1 6 -9 16
-11 15 -27 -5z"/>
<path d="M2516 3062 c-3 -5 1 -9 9 -9 8 0 12 4 9 9 -3 4 -7 8 -9 8 -2 0 -6 -4
-9 -8z"/>
</g>
</svg>
